<svg width="51" height="51" viewBox="0 0 51 51" fill="none" xmlns="http://www.w3.org/2000/svg">
<path d="M19.89 0H51L0 51V19.1881L19.89 0Z" fill="#FF7360"/>
<path d="M8.85884 31.0739L3.9903 26.2054L5.42812 24.7675C5.85835 24.3373 6.3354 24.052 6.85926 23.9115C7.38535 23.7689 7.91589 23.7822 8.4509 23.9517C8.9859 24.1211 9.48078 24.4332 9.93554 24.8879L10.1796 25.132C10.6411 25.5935 10.9543 26.0917 11.1192 26.6267C11.2864 27.1595 11.2942 27.6911 11.1426 28.2217C10.9933 28.75 10.699 29.2337 10.2599 29.6729L8.85884 31.0739ZM5.5184 26.0415L9.02937 29.5525L9.5811 29.0008C10.0247 28.5572 10.2264 28.079 10.1863 27.5663C10.1462 27.0491 9.86866 26.5286 9.35372 26.0047L9.08287 25.7339C8.55456 25.2056 8.03627 24.9169 7.52802 24.8679C7.01976 24.8188 6.54717 25.0128 6.11025 25.4497L5.5184 26.0415ZM15.1199 24.9466C14.6049 25.4616 14.0253 25.7179 13.3811 25.7157C12.7369 25.709 12.145 25.4359 11.6056 24.8965L11.5052 24.7962C11.1441 24.435 10.8911 24.0438 10.7462 23.6225C10.6013 23.1967 10.5757 22.7788 10.6693 22.3686C10.7629 21.9584 10.9647 21.5984 11.2745 21.2885C11.7672 20.7959 12.3044 20.573 12.8862 20.6198C13.4703 20.6644 14.0499 20.9742 14.625 21.5494L14.9527 21.877L12.5886 24.2411C12.9119 24.5153 13.2474 24.6524 13.5951 24.6524C13.9451 24.6502 14.2527 24.5164 14.518 24.2511C14.8903 23.8789 15.043 23.4252 14.9761 22.8902L15.8321 22.8701C15.9034 23.2313 15.8778 23.5935 15.7552 23.9569C15.6326 24.3158 15.4208 24.6457 15.1199 24.9466ZM11.9232 21.9439C11.7003 22.1668 11.5978 22.4254 11.6156 22.7197C11.6356 23.0117 11.7661 23.316 12.0068 23.6325L13.555 22.0844L13.4948 22.0242C13.205 21.77 12.9275 21.6374 12.6622 21.6263C12.3947 21.6129 12.1484 21.7188 11.9232 21.9439ZM17.6292 22.3036L14.6131 19.2875L14.0614 19.8392L13.4595 19.2373L14.0112 18.6856L13.6802 18.3546C13.2789 17.9533 13.0805 17.532 13.085 17.0906C13.0894 16.6492 13.2923 16.2279 13.6935 15.8267C13.8362 15.684 14.0079 15.5525 14.2085 15.4321L14.8237 16.0875C14.7167 16.1588 14.6042 16.2536 14.486 16.3717C14.0981 16.7596 14.1037 17.153 14.5027 17.5521L14.8237 17.8731L15.5594 17.1374L16.1613 17.7393L15.4256 18.475L18.4417 21.491L17.6292 22.3036ZM22.1381 17.7947C22.0333 17.7613 21.8895 17.6799 21.7067 17.5506C21.7179 18.0789 21.5362 18.5303 21.1617 18.9048C20.7983 19.2682 20.3982 19.461 19.9613 19.4833C19.5243 19.5056 19.1532 19.364 18.8478 19.0586C18.4621 18.673 18.3094 18.235 18.3897 17.7445C18.4699 17.2497 18.7764 16.7358 19.3092 16.2031L19.8074 15.7048L19.57 15.4674C19.3828 15.2802 19.181 15.1832 18.9648 15.1765C18.7464 15.1676 18.5301 15.2701 18.3161 15.4841C18.1311 15.6692 18.0263 15.8676 18.0018 16.0793C17.9751 16.2889 18.033 16.465 18.1757 16.6076L17.3631 17.4202C17.1647 17.2218 17.0455 16.971 17.0054 16.6678C16.963 16.3624 17.0054 16.0481 17.1324 15.7249C17.2617 15.3994 17.4657 15.0974 17.7443 14.8187C18.1679 14.3952 18.6126 14.1645 19.0785 14.1266C19.5422 14.0864 19.9702 14.2559 20.3625 14.6348L21.9943 16.2666C22.3197 16.592 22.6251 16.806 22.9105 16.9086L22.9673 16.9654L22.1381 17.7947ZM20.6601 18.1023C20.8206 17.9418 20.9321 17.7523 20.9945 17.5339C21.0591 17.3132 21.0614 17.1014 21.0012 16.8986L20.319 16.2164L19.881 16.6545C19.5801 16.9554 19.4062 17.2341 19.3594 17.4904C19.3126 17.7468 19.385 17.9708 19.5767 18.1625C19.7328 18.3186 19.9089 18.3921 20.105 18.3832C20.3012 18.3698 20.4862 18.2762 20.6601 18.1023ZM25.7241 13.4998C25.7664 14.0192 25.568 14.4985 25.1289 14.9376C24.7365 15.33 24.3241 15.5128 23.8917 15.486C23.4614 15.457 23.029 15.2252 22.5943 14.7905L20.2503 12.4465L21.0628 11.634L23.3968 13.9679C23.856 14.4271 24.2762 14.4662 24.6574 14.085C25.052 13.6904 25.1768 13.2825 25.0319 12.8611L22.4338 10.263L23.2463 9.45049L26.8643 13.0685L26.0986 13.8342L25.7241 13.4998ZM28.7617 11.1711L27.9492 11.9836L22.8131 6.84756L23.6256 6.03502L28.7617 11.1711ZM26.3757 4.56228L27.2551 5.4417L27.8938 4.80303L28.4957 5.40491L27.857 6.04358L29.8766 8.06322C30.0149 8.20143 30.1419 8.27499 30.2578 8.28391C30.3738 8.28837 30.5019 8.22038 30.6424 8.07994C30.736 7.98631 30.8196 7.88043 30.8932 7.76228L31.5218 8.39091C31.388 8.6272 31.2353 8.83118 31.0637 9.00282C30.4395 9.627 29.783 9.59467 29.0942 8.90585L27.0445 6.85612L26.4493 7.45131L25.8474 6.84943L26.4426 6.25424L25.5632 5.37482L26.3757 4.56228Z" fill="white"/>
</svg>
