<svg width="20" height="19" viewBox="0 0 20 19" fill="none" xmlns="http://www.w3.org/2000/svg">
<path d="M5.21866 10.876L10.4853 16.1427C10.7222 16.3953 10.8515 16.7301 10.8459 17.0763C10.8403 17.4226 10.7002 17.7531 10.4552 17.9978C10.2103 18.2426 9.87968 18.3825 9.53343 18.3879C9.18719 18.3932 8.85243 18.2637 8.6 18.0267L1.05733 10.4853C0.933083 10.3618 0.834484 10.2149 0.767202 10.0531C0.69992 9.89135 0.665283 9.71786 0.665283 9.54265C0.665283 9.36744 0.69992 9.19396 0.767202 9.03218C0.834484 8.87041 0.933083 8.72352 1.05733 8.59999L8.6 1.05732C8.72299 0.929973 8.87012 0.828396 9.03279 0.758518C9.19546 0.688639 9.37042 0.651857 9.54746 0.650319C9.7245 0.64878 9.90007 0.682516 10.0639 0.749557C10.2278 0.816598 10.3767 0.915602 10.5019 1.04079C10.627 1.16598 10.7261 1.31485 10.7931 1.47871C10.8601 1.64258 10.8939 1.81815 10.8923 1.99519C10.8908 2.17223 10.854 2.34719 10.7841 2.50986C10.7143 2.67253 10.6127 2.81966 10.4853 2.94265L5.21866 8.20932H18C18.3536 8.20932 18.6928 8.34979 18.9428 8.59984C19.1929 8.84989 19.3333 9.18903 19.3333 9.54265C19.3333 9.89627 19.1929 10.2354 18.9428 10.4855C18.6928 10.7355 18.3536 10.876 18 10.876H5.21866Z" fill="black"/>
</svg>
