<svg width="33" height="32" viewBox="0 0 33 32" fill="none" xmlns="http://www.w3.org/2000/svg">
<path d="M13.8333 26.6667C13.126 26.6667 12.4478 26.3858 11.9477 25.8857C11.4476 25.3856 11.1666 24.7073 11.1666 24C11.1666 23.2928 11.4476 22.6145 11.9477 22.1144C12.4478 21.6143 13.126 21.3334 13.8333 21.3334C14.5405 21.3334 15.2188 21.6143 15.7189 22.1144C16.219 22.6145 16.4999 23.2928 16.4999 24C16.4999 24.7073 16.219 25.3856 15.7189 25.8857C15.2188 26.3858 14.5405 26.6667 13.8333 26.6667ZM23.1666 26.6667C22.4594 26.6667 21.7811 26.3858 21.281 25.8857C20.7809 25.3856 20.4999 24.7073 20.4999 24C20.4999 23.2928 20.7809 22.6145 21.281 22.1144C21.7811 21.6143 22.4594 21.3334 23.1666 21.3334C23.8739 21.3334 24.5521 21.6143 25.0522 22.1144C25.5523 22.6145 25.8333 23.2928 25.8333 24C25.8333 24.7073 25.5523 25.3856 25.0522 25.8857C24.5521 26.3858 23.8739 26.6667 23.1666 26.6667ZM5.78261 7.89737C5.44976 7.88664 5.13413 7.74687 4.90247 7.50762C4.67081 7.26837 4.54129 6.9484 4.54129 6.61537C4.54129 6.28235 4.67081 5.96238 4.90247 5.72313C5.13413 5.48388 5.44976 5.34411 5.78261 5.33337H7.31727C8.51994 5.33337 9.55994 6.16804 9.82127 7.34137L11.4919 14.864C11.7533 16.0374 12.7933 16.872 13.9959 16.872H24.0119L25.9346 9.17871H13.4746C13.1449 9.16366 12.8337 9.02209 12.6057 8.78344C12.3776 8.54479 12.2504 8.22744 12.2504 7.89737C12.2504 7.56731 12.3776 7.24995 12.6057 7.0113C12.8337 6.77266 13.1449 6.63109 13.4746 6.61604H25.9346C26.3244 6.61593 26.7091 6.70468 27.0594 6.87555C27.4097 7.04643 27.7165 7.29492 27.9563 7.60215C28.1962 7.90938 28.3629 8.26726 28.4437 8.64857C28.5245 9.02988 28.5173 9.4246 28.4226 9.80271L26.4999 17.4934C26.3613 18.0483 26.0412 18.541 25.5903 18.893C25.1395 19.245 24.5839 19.4361 24.0119 19.436H13.9959C12.829 19.4362 11.6969 19.0383 10.7866 18.3082C9.87634 17.578 9.24232 16.5592 8.98927 15.42L7.31727 7.89737H5.78261Z" fill="black"/>
<circle cx="25.5" cy="7.5" r="4.5" fill="#FF7360"/>
</svg>
