<svg width="29" height="28" viewBox="0 0 29 28" fill="none" xmlns="http://www.w3.org/2000/svg">
<rect width="28.1319" height="27.0707" rx="13.5354" fill="black"/>
<path d="M12.4079 19.3535C12.0507 19.3535 11.7081 19.2116 11.4555 18.959C11.2028 18.7064 11.0609 18.3637 11.0609 18.0065C11.0609 17.6492 11.2028 17.3066 11.4555 17.054C11.7081 16.8014 12.0507 16.6594 12.4079 16.6594C12.7652 16.6594 13.1078 16.8014 13.3604 17.054C13.6131 17.3066 13.755 17.6492 13.755 18.0065C13.755 18.3637 13.6131 18.7064 13.3604 18.959C13.1078 19.2116 12.7652 19.3535 12.4079 19.3535ZM17.1226 19.3535C16.7653 19.3535 16.4227 19.2116 16.1701 18.959C15.9174 18.7064 15.7755 18.3637 15.7755 18.0065C15.7755 17.6492 15.9174 17.3066 16.1701 17.054C16.4227 16.8014 16.7653 16.6594 17.1226 16.6594C17.4798 16.6594 17.8224 16.8014 18.075 17.054C18.3277 17.3066 18.4696 17.6492 18.4696 18.0065C18.4696 18.3637 18.3277 18.7064 18.075 18.959C17.8224 19.2116 17.4798 19.3535 17.1226 19.3535ZM8.34127 9.87244C8.17313 9.86702 8.0137 9.79641 7.89668 9.67556C7.77966 9.55471 7.71423 9.39308 7.71423 9.22485C7.71423 9.05663 7.77966 8.895 7.89668 8.77415C8.0137 8.6533 8.17313 8.58269 8.34127 8.57727H9.11648C9.72399 8.57727 10.2493 8.99889 10.3813 9.59158L11.2253 13.3916C11.3573 13.9842 11.8826 14.4059 12.4901 14.4059H17.5496L18.5208 10.5197H12.2268C12.0602 10.5121 11.903 10.4406 11.7878 10.32C11.6727 10.1995 11.6084 10.0392 11.6084 9.87244C11.6084 9.70571 11.6727 9.5454 11.7878 9.42485C11.903 9.3043 12.0602 9.23279 12.2268 9.22519H18.5208C18.7177 9.22513 18.912 9.26997 19.0889 9.35628C19.2659 9.44259 19.4209 9.56812 19.542 9.72331C19.6632 9.8785 19.7474 10.0593 19.7882 10.2519C19.829 10.4445 19.8254 10.6439 19.7775 10.8349L18.8063 14.7197C18.7363 15 18.5746 15.2489 18.3469 15.4267C18.1191 15.6045 17.8385 15.7011 17.5496 15.701H12.4901C11.9007 15.7011 11.3288 15.5001 10.869 15.1313C10.4092 14.7625 10.0889 14.2478 9.96107 13.6724L9.11648 9.87244H8.34127Z" fill="white" stroke="white" stroke-width="0.1"/>
</svg>
