<svg width="25" height="22" viewBox="0 0 25 22" fill="none" xmlns="http://www.w3.org/2000/svg">
<path d="M9.83324 21.6667C9.126 21.6667 8.44772 21.3858 7.94763 20.8857C7.44753 20.3856 7.16658 19.7073 7.16658 19C7.16658 18.2928 7.44753 17.6145 7.94763 17.1144C8.44772 16.6143 9.126 16.3334 9.83324 16.3334C10.5405 16.3334 11.2188 16.6143 11.7189 17.1144C12.219 17.6145 12.4999 18.2928 12.4999 19C12.4999 19.7073 12.219 20.3856 11.7189 20.8857C11.2188 21.3858 10.5405 21.6667 9.83324 21.6667ZM19.1666 21.6667C18.4593 21.6667 17.7811 21.3858 17.281 20.8857C16.7809 20.3856 16.4999 19.7073 16.4999 19C16.4999 18.2928 16.7809 17.6145 17.281 17.1144C17.7811 16.6143 18.4593 16.3334 19.1666 16.3334C19.8738 16.3334 20.5521 16.6143 21.0522 17.1144C21.5523 17.6145 21.8332 18.2928 21.8332 19C21.8332 19.7073 21.5523 20.3856 21.0522 20.8857C20.5521 21.3858 19.8738 21.6667 19.1666 21.6667ZM1.78258 2.89737C1.44973 2.88664 1.1341 2.74687 0.902441 2.50762C0.670784 2.26837 0.54126 1.9484 0.54126 1.61537C0.54126 1.28235 0.670784 0.96238 0.902441 0.723131C1.1341 0.483881 1.44973 0.34411 1.78258 0.333374H3.31724C4.51991 0.333374 5.55991 1.16804 5.82124 2.34137L7.49191 9.86404C7.75324 11.0374 8.79324 11.872 9.99591 11.872H20.0119L21.9346 4.17871H9.47458C9.14486 4.16366 8.83363 4.02209 8.60562 3.78344C8.37761 3.54479 8.25038 3.22744 8.25038 2.89737C8.25038 2.56731 8.37761 2.24995 8.60562 2.0113C8.83363 1.77266 9.14486 1.63109 9.47458 1.61604H21.9346C22.3244 1.61593 22.709 1.70468 23.0594 1.87555C23.4097 2.04643 23.7164 2.29492 23.9563 2.60215C24.1962 2.90938 24.3629 3.26726 24.4436 3.64857C24.5244 4.02988 24.5172 4.4246 24.4226 4.80271L22.4999 12.4934C22.3613 13.0483 22.0411 13.541 21.5903 13.893C21.1395 14.245 20.5839 14.4361 20.0119 14.436H9.99591C8.82897 14.4362 7.69688 14.0383 6.78659 13.3082C5.87631 12.578 5.24229 11.5592 4.98924 10.42L3.31724 2.89737H1.78258Z" fill="black"/>
</svg>
