<svg width="27" height="27" viewBox="0 0 27 27" fill="none" xmlns="http://www.w3.org/2000/svg">
<rect width="27" height="27" rx="6" fill="#06102B" fill-opacity="0.73"/>
<path d="M11.6937 18.7762C11.3365 18.7762 10.9938 18.6343 10.7412 18.3817C10.4886 18.1291 10.3467 17.7865 10.3467 17.4292C10.3467 17.0719 10.4886 16.7293 10.7412 16.4767C10.9938 16.2241 11.3365 16.0822 11.6937 16.0822C12.051 16.0822 12.3936 16.2241 12.6462 16.4767C12.8988 16.7293 13.0407 17.0719 13.0407 17.4292C13.0407 17.7865 12.8988 18.1291 12.6462 18.3817C12.3936 18.6343 12.051 18.7762 11.6937 18.7762ZM16.4083 18.7762C16.0511 18.7762 15.7084 18.6343 15.4558 18.3817C15.2032 18.1291 15.0613 17.7865 15.0613 17.4292C15.0613 17.0719 15.2032 16.7293 15.4558 16.4767C15.7084 16.2241 16.0511 16.0822 16.4083 16.0822C16.7656 16.0822 17.1082 16.2241 17.3608 16.4767C17.6134 16.7293 17.7553 17.0719 17.7553 17.4292C17.7553 17.7865 17.6134 18.1291 17.3608 18.3817C17.1082 18.6343 16.7656 18.7762 16.4083 18.7762ZM7.62703 9.29517C7.4589 9.28975 7.29946 9.21914 7.18245 9.09829C7.06543 8.97743 7 8.81581 7 8.64758C7 8.47936 7.06543 8.31773 7.18245 8.19688C7.29946 8.07603 7.4589 8.00542 7.62703 8H8.40225C9.00976 8 9.5351 8.42162 9.66711 9.01431L10.511 12.8143C10.643 13.407 11.1684 13.8286 11.7759 13.8286H16.8353L17.8065 9.94242H11.5125C11.346 9.93482 11.1888 9.8633 11.0736 9.74275C10.9584 9.6222 10.8942 9.46189 10.8942 9.29517C10.8942 9.12844 10.9584 8.96813 11.0736 8.84758C11.1888 8.72703 11.346 8.65552 11.5125 8.64792H17.8065C18.0034 8.64786 18.1977 8.6927 18.3747 8.77901C18.5517 8.86532 18.7066 8.99085 18.8278 9.14604C18.949 9.30123 19.0331 9.48201 19.074 9.67462C19.1148 9.86724 19.1111 10.0666 19.0633 10.2576L18.0921 14.1425C18.0221 14.4228 17.8604 14.6716 17.6326 14.8494C17.4049 15.0272 17.1243 15.1238 16.8353 15.1238H11.7759C11.1864 15.1238 10.6146 14.9229 10.1547 14.554C9.69493 14.1852 9.37466 13.6706 9.24684 13.0951L8.40225 9.29517H7.62703Z" fill="white" stroke="white" stroke-width="0.1"/>
</svg>
