<svg width="24" height="16" viewBox="0 0 24 16" fill="none" xmlns="http://www.w3.org/2000/svg">
<path d="M2.49996 0.083313H10.4166C10.8366 0.083313 11.2393 0.250128 11.5362 0.547061C11.8331 0.843993 12 1.24672 12 1.66665C12 2.08657 11.8331 2.4893 11.5362 2.78623C11.2393 3.08316 10.8366 3.24998 10.4166 3.24998H2.49996C2.08003 3.24998 1.67731 3.08316 1.38037 2.78623C1.08344 2.4893 0.916626 2.08657 0.916626 1.66665C0.916626 1.24672 1.08344 0.843993 1.38037 0.547061C1.67731 0.250128 2.08003 0.083313 2.49996 0.083313ZM13.5833 12.75H21.5C21.9199 12.75 22.3226 12.9168 22.6195 13.2137C22.9165 13.5107 23.0833 13.9134 23.0833 14.3333C23.0833 14.7532 22.9165 15.156 22.6195 15.4529C22.3226 15.7498 21.9199 15.9166 21.5 15.9166H13.5833C13.1634 15.9166 12.7606 15.7498 12.4637 15.4529C12.1668 15.156 12 14.7532 12 14.3333C12 13.9134 12.1668 13.5107 12.4637 13.2137C12.7606 12.9168 13.1634 12.75 13.5833 12.75ZM2.49996 6.41665H21.5C21.9199 6.41665 22.3226 6.58346 22.6195 6.88039C22.9165 7.17733 23.0833 7.58005 23.0833 7.99998C23.0833 8.41991 22.9165 8.82263 22.6195 9.11957C22.3226 9.4165 21.9199 9.58331 21.5 9.58331H2.49996C2.08003 9.58331 1.67731 9.4165 1.38037 9.11957C1.08344 8.82263 0.916626 8.41991 0.916626 7.99998C0.916626 7.58005 1.08344 7.17733 1.38037 6.88039C1.67731 6.58346 2.08003 6.41665 2.49996 6.41665Z" fill="black"/>
</svg>
