<svg width="24" height="16" viewBox="0 0 24 16" fill="none" xmlns="http://www.w3.org/2000/svg">
<path d="M2.49984 0.0833435H10.4165C10.8364 0.0833435 11.2392 0.250159 11.5361 0.547091C11.833 0.844024 11.9998 1.24675 11.9998 1.66668C11.9998 2.0866 11.833 2.48933 11.5361 2.78626C11.2392 3.08319 10.8364 3.25001 10.4165 3.25001H2.49984C2.07991 3.25001 1.67718 3.08319 1.38025 2.78626C1.08332 2.48933 0.916504 2.0866 0.916504 1.66668C0.916504 1.24675 1.08332 0.844024 1.38025 0.547091C1.67718 0.250159 2.07991 0.0833435 2.49984 0.0833435ZM13.5832 12.75H21.4998C21.9198 12.75 22.3225 12.9168 22.6194 13.2138C22.9164 13.5107 23.0832 13.9134 23.0832 14.3333C23.0832 14.7533 22.9164 15.156 22.6194 15.4529C22.3225 15.7499 21.9198 15.9167 21.4998 15.9167H13.5832C13.1632 15.9167 12.7605 15.7499 12.4636 15.4529C12.1667 15.156 11.9998 14.7533 11.9998 14.3333C11.9998 13.9134 12.1667 13.5107 12.4636 13.2138C12.7605 12.9168 13.1632 12.75 13.5832 12.75ZM2.49984 6.41668H21.4998C21.9198 6.41668 22.3225 6.58349 22.6194 6.88042C22.9164 7.17736 23.0832 7.58008 23.0832 8.00001C23.0832 8.41994 22.9164 8.82266 22.6194 9.1196C22.3225 9.41653 21.9198 9.58334 21.4998 9.58334H2.49984C2.07991 9.58334 1.67718 9.41653 1.38025 9.1196C1.08332 8.82266 0.916504 8.41994 0.916504 8.00001C0.916504 7.58008 1.08332 7.17736 1.38025 6.88042C1.67718 6.58349 2.07991 6.41668 2.49984 6.41668Z" fill="white"/>
</svg>
