<svg width="375" height="474" viewBox="0 0 375 474" fill="none" xmlns="http://www.w3.org/2000/svg">
<path d="M-33.8559 474.104L-60.6463 230.433C-61.3643 223.926 -59.4347 217.374 -55.351 212.259L47.323 84.5894C52.6631 77.9479 61.0996 74.5374 69.581 75.5695L360.506 111.469C369.615 112.591 377.379 118.694 380.61 127.31L440.338 286.886C441.774 290.7 442.223 294.784 441.684 298.778L418.439 474.104H-33.8559Z" fill="#F4F4F4"/>
<path d="M50.1053 283.43C61.258 283.43 70.299 274.39 70.299 263.237C70.299 252.084 61.258 243.043 50.1053 243.043C38.9525 243.043 29.9115 252.084 29.9115 263.237C29.9115 274.39 38.9525 283.43 50.1053 283.43Z" fill="white"/>
<path d="M40.9506 257.493C40.9506 255.653 42.4314 254.172 44.2713 254.172C46.1112 254.172 47.5921 255.653 47.5921 257.493C47.5921 259.333 46.1112 260.813 44.2713 260.813C42.4314 260.813 40.9506 259.333 40.9506 257.493Z" fill="#FF7360"/>
<path d="M42.8356 269.878L55.1314 254.172C55.3109 253.948 55.5801 253.948 55.8045 254.082L57.6892 255.563C57.9136 255.743 57.9136 256.012 57.779 256.236L45.4832 271.942C45.3037 272.167 45.0345 272.167 44.8101 272.032L42.9254 270.551C42.701 270.372 42.6561 270.103 42.8356 269.878Z" fill="#FF7360"/>
<path d="M55.939 272.526C54.0992 272.526 52.6183 271.045 52.6183 269.206C52.6183 267.366 54.0992 265.884 55.939 265.884C57.7789 265.884 59.2598 267.366 59.2598 269.206C59.2598 271.045 57.7789 272.526 55.939 272.526Z" fill="#FF7360"/>
<g opacity="0.4">
<path opacity="0.4" d="M40.9504 257.493C40.9504 255.653 42.4313 254.172 44.2712 254.172C46.1111 254.172 47.5919 255.653 47.5919 257.493C47.5919 259.333 46.1111 260.813 44.2712 260.813C42.4313 260.813 40.9504 259.333 40.9504 257.493Z" fill="white"/>
<path opacity="0.4" d="M42.8355 269.878L55.1312 254.172C55.3107 253.948 55.58 253.948 55.8044 254.082L57.6891 255.563C57.9135 255.743 57.9135 256.012 57.7789 256.236L45.4831 271.942C45.3036 272.167 45.0344 272.167 44.81 272.032L42.9252 270.551C42.7009 270.372 42.656 270.103 42.8355 269.878Z" fill="white"/>
<path opacity="0.4" d="M55.9389 272.526C54.099 272.526 52.6182 271.045 52.6182 269.206C52.6182 267.366 54.099 265.884 55.9389 265.884C57.7788 265.884 59.2597 267.366 59.2597 269.206C59.2597 271.045 57.7788 272.526 55.9389 272.526Z" fill="white"/>
</g>
<path d="M32.2897 200.905C43.4425 200.905 52.4835 191.864 52.4835 180.712C52.4835 169.559 43.4425 160.518 32.2897 160.518C21.1369 160.518 12.0959 169.559 12.0959 180.712C12.0959 191.864 21.1369 200.905 32.2897 200.905Z" fill="white"/>
<path d="M43.1496 173.801C43.0598 173.711 42.9252 173.621 42.7906 173.621H25.4688L24.9752 171.243C24.9303 171.019 24.7508 170.884 24.5264 170.884H21.7891C21.5198 170.884 21.3403 171.108 21.3403 171.333C21.3403 171.557 21.5647 171.782 21.7891 171.782H24.1675L26.3663 182.866C26.6804 184.347 27.9818 185.424 29.5076 185.424H40.0083C40.2776 185.424 40.4571 185.199 40.4571 184.975C40.4571 184.75 40.2327 184.526 40.0083 184.526H29.5076C28.7447 184.526 28.0716 184.167 27.6677 183.584L40.9956 181.789C41.1751 181.744 41.3546 181.609 41.3994 181.43L43.2393 174.16C43.2393 174.07 43.2393 173.891 43.1496 173.801Z" fill="#FF7360"/>
<path d="M38.5849 190.914C39.8324 190.712 40.6797 189.536 40.4773 188.288C40.2749 187.041 39.0992 186.194 37.8517 186.396C36.6037 186.598 35.7564 187.774 35.9588 189.022C36.1617 190.27 37.3369 191.117 38.5849 190.914Z" fill="#FF7360"/>
<path d="M29.1038 190.943C30.3679 190.943 31.3924 189.919 31.3924 188.655C31.3924 187.391 30.3679 186.366 29.1038 186.366C27.8401 186.366 26.8152 187.391 26.8152 188.655C26.8152 189.919 27.8401 190.943 29.1038 190.943Z" fill="#FF7360"/>
<g opacity="0.4">
<path opacity="0.4" d="M43.1496 173.801C43.0598 173.711 42.9252 173.621 42.7906 173.621H25.4688L24.9752 171.243C24.9303 171.019 24.7508 170.884 24.5264 170.884H21.7891C21.5198 170.884 21.3403 171.108 21.3403 171.333C21.3403 171.557 21.5647 171.782 21.7891 171.782H24.1675L26.3663 182.866C26.6804 184.347 27.9818 185.424 29.5076 185.424H40.0083C40.2776 185.424 40.4571 185.199 40.4571 184.975C40.4571 184.75 40.2327 184.526 40.0083 184.526H29.5076C28.7447 184.526 28.0716 184.167 27.6677 183.584L40.9956 181.789C41.1751 181.744 41.3546 181.609 41.3994 181.43L43.2393 174.16C43.2393 174.07 43.2393 173.891 43.1496 173.801Z" fill="white"/>
<path opacity="0.4" d="M38.585 190.914C39.8326 190.712 40.6798 189.536 40.4774 188.288C40.275 187.041 39.0993 186.194 37.8518 186.396C36.6038 186.598 35.7566 187.774 35.959 189.022C36.1618 190.27 37.3371 191.117 38.585 190.914Z" fill="white"/>
<path opacity="0.4" d="M29.1038 190.943C30.3679 190.943 31.3924 189.919 31.3924 188.655C31.3924 187.391 30.3679 186.366 29.1038 186.366C27.8401 186.366 26.8152 187.391 26.8152 188.655C26.8152 189.919 27.8401 190.943 29.1038 190.943Z" fill="white"/>
</g>
<path d="M142.054 139.427C153.207 139.427 162.248 130.386 162.248 119.233C162.248 108.08 153.207 99.0391 142.054 99.0391C130.901 99.0391 121.86 108.08 121.86 119.233C121.86 130.386 130.901 139.427 142.054 139.427Z" fill="white"/>
<path d="M136.31 116.226H138.285L142.144 110.437L142.458 107.206C142.503 106.713 143.042 106.399 143.49 106.623C144.343 107.027 145.196 108.149 145.196 111.335C145.196 114.925 145.24 115.149 145.24 115.149L151.254 115.194C152.017 115.194 152.6 115.777 152.645 116.54C152.69 118.829 152.779 123.406 152.824 125.964C152.869 127.714 151.792 129.33 150.177 129.734C149.952 129.778 149.728 129.823 149.504 129.823C147.888 129.823 139.721 128.522 139.721 128.522H136.355V116.226H136.31Z" fill="#FF7360"/>
<path d="M130.701 116.226L131.913 128.702H135.278V116.226H130.701Z" fill="#FF7360"/>
<g opacity="0.4">
<g opacity="0.4">
<path opacity="0.4" d="M136.31 116.226H138.285L142.144 110.437L142.458 107.206C142.503 106.713 143.041 106.399 143.49 106.623C144.343 107.027 145.195 108.149 145.195 111.335C145.195 114.925 145.24 115.149 145.24 115.149L151.253 115.194C152.016 115.194 152.6 115.778 152.645 116.54C152.689 118.829 152.779 123.406 152.824 125.964C152.869 127.714 151.792 129.33 150.176 129.734C149.952 129.779 149.728 129.823 149.503 129.823C147.888 129.823 139.721 128.522 139.721 128.522H136.355V116.226H136.31Z" fill="white"/>
</g>
<g opacity="0.4">
<path opacity="0.4" d="M130.701 116.226L131.913 128.702H135.278V116.226H130.701Z" fill="white"/>
</g>
</g>
<path d="M233.913 474.104H205.059C201.558 474.104 198.731 471.277 198.731 467.777V152.485C198.731 148.985 201.558 146.158 205.059 146.158H233.913C243.382 146.158 251.1 153.831 251.1 163.345V456.917C251.1 466.386 243.427 474.104 233.913 474.104Z" fill="#21252B"/>
<path d="M222.874 474.104H85.1076C74.921 474.104 66.6191 465.847 66.6191 455.616V164.646C66.6191 154.46 74.8761 146.158 85.1076 146.158H222.874C233.061 146.158 241.362 154.415 241.362 164.646V455.616C241.318 465.802 233.061 474.104 222.874 474.104Z" fill="#61656D"/>
<path d="M222.649 153.697H186.974C184.551 153.697 182.441 155.402 181.993 157.825C181.544 160.204 179.435 161.954 177.012 161.954H130.925C128.502 161.954 126.393 160.249 125.944 157.825C125.495 155.447 123.386 153.697 120.963 153.697H85.2871C78.9597 153.697 73.844 158.813 73.844 165.14V455.077C73.844 461.405 78.9597 466.521 85.2871 466.521H222.605C228.932 466.521 234.048 461.405 234.048 455.077V165.14C234.048 158.813 228.932 153.697 222.649 153.697Z" fill="#FF7360"/>
<path opacity="0.7" d="M222.649 153.697H186.974C184.551 153.697 182.441 155.402 181.993 157.825C181.544 160.204 179.435 161.954 177.012 161.954H130.925C128.502 161.954 126.393 160.249 125.944 157.825C125.495 155.447 123.386 153.697 120.963 153.697H85.2871C78.9597 153.697 73.844 158.813 73.844 165.14V455.077C73.844 461.405 78.9597 466.521 85.2871 466.521H222.605C228.932 466.521 234.048 461.405 234.048 455.077V165.14C234.048 158.813 228.932 153.697 222.649 153.697Z" fill="white"/>
<path opacity="0.5" d="M172.39 156.3H135.592C134.874 156.3 134.291 155.716 134.291 154.998C134.291 154.28 134.874 153.697 135.592 153.697H172.39C173.108 153.697 173.691 154.28 173.691 154.998C173.691 155.716 173.108 156.3 172.39 156.3Z" fill="black"/>
<path d="M222.65 153.697L207.482 191.437H178.268L193.346 153.697H222.65Z" fill="#FF7360"/>
<path d="M193.436 153.697L178.268 191.437H149.055L164.133 153.697H193.436Z" fill="#3F4249"/>
<path d="M164.222 153.697L149.055 191.437H119.886L134.919 153.697H164.222Z" fill="#FF7360"/>
<path d="M135.009 153.697L119.886 191.437H90.6721L105.705 153.697H135.009Z" fill="#3F4249"/>
<path d="M105.795 153.697L90.6275 191.437H61.3241L73.1711 161.909C75.1905 156.928 79.9921 153.652 85.3771 153.652H105.795V153.697Z" fill="#FF7360"/>
<path d="M222.65 153.697L207.482 191.437H178.268L193.346 153.697H222.65Z" fill="#FF7360"/>
<path d="M164.222 153.697L149.055 191.437H119.886L134.919 153.697H164.222Z" fill="#FF7360"/>
<path d="M105.795 153.697L90.6275 191.437H61.3241L73.1711 161.909C75.1905 156.928 79.9921 153.652 85.3771 153.652H105.795V153.697Z" fill="#FF7360"/>
<path d="M207.482 191.437H234.048V165.14C234.048 158.813 228.932 153.697 222.605 153.697L207.482 191.437Z" fill="#21252B"/>
<path d="M61.3687 191.437H90.672V195.251C90.672 203.329 84.1203 209.88 76.0428 209.88C67.9653 209.88 61.4135 203.329 61.4135 195.251V191.437H61.3687Z" fill="#FF7360"/>
<path d="M90.5825 191.437H119.886V195.251C119.886 203.329 113.334 209.88 105.257 209.88C97.1791 209.88 90.6274 203.329 90.6274 195.251V191.437H90.5825Z" fill="#21252B"/>
<path d="M119.796 191.437H149.1V195.251C149.1 203.329 142.548 209.88 134.47 209.88C126.393 209.88 119.841 203.329 119.841 195.251V191.437H119.796Z" fill="#FF7360"/>
<path d="M148.965 191.437H178.268V195.251C178.268 203.329 171.716 209.88 163.639 209.88C155.561 209.88 149.01 203.329 149.01 195.251V191.437H148.965Z" fill="#21252B"/>
<path d="M178.178 191.437H207.482V195.251C207.482 203.329 200.93 209.88 192.853 209.88C184.775 209.88 178.223 203.329 178.223 195.251V191.437H178.178Z" fill="#FF7360"/>
<path opacity="0.3" d="M61.3687 191.437H90.672V195.251C90.672 203.329 84.1203 209.88 76.0428 209.88C67.9653 209.88 61.4135 203.329 61.4135 195.251V191.437H61.3687Z" fill="black"/>
<path opacity="0.3" d="M119.796 191.437H149.1V195.251C149.1 203.329 142.548 209.88 134.47 209.88C126.393 209.88 119.841 203.329 119.841 195.251V191.437H119.796Z" fill="black"/>
<path opacity="0.3" d="M178.178 191.437H207.482V195.251C207.482 203.329 200.93 209.88 192.853 209.88C184.775 209.88 178.223 203.329 178.223 195.251V191.437H178.178Z" fill="black"/>
<path d="M191.955 231.42H119.751C113.918 231.42 109.206 236.132 109.206 241.966V314.17C109.206 320.004 113.918 324.716 119.751 324.716H191.955C197.789 324.716 202.501 320.004 202.501 314.17V241.966C202.501 236.177 197.789 231.42 191.955 231.42Z" fill="#FF7360"/>
<g opacity="0.5">
<path opacity="0.5" d="M191.955 231.42H119.751C113.918 231.42 109.206 236.132 109.206 241.966V314.17C109.206 320.004 113.918 324.716 119.751 324.716H191.955C197.789 324.716 202.501 320.004 202.501 314.17V241.966C202.501 236.177 197.789 231.42 191.955 231.42Z" fill="white"/>
</g>
<path d="M188.186 231.42H115.982C110.148 231.42 105.436 236.132 105.436 241.966V314.17C105.436 320.004 110.148 324.716 115.982 324.716H188.186C194.019 324.716 198.731 320.004 198.731 314.17V241.966C198.731 236.177 194.019 231.42 188.186 231.42Z" fill="white"/>
<path d="M211.61 371.7H96.3712C94.6211 371.7 93.1851 370.264 93.1851 368.514C93.1851 366.763 94.6211 365.327 96.3712 365.327H211.61C213.36 365.327 214.796 366.763 214.796 368.514C214.796 370.264 213.36 371.7 211.61 371.7Z" fill="white"/>
<path d="M211.61 352.673H96.3712C94.6211 352.673 93.1851 351.237 93.1851 349.487C93.1851 347.736 94.6211 346.3 96.3712 346.3H211.61C213.36 346.3 214.796 347.736 214.796 349.487C214.796 351.237 213.36 352.673 211.61 352.673Z" fill="white"/>
<path d="M190.968 390.727H116.969C115.219 390.727 113.783 389.291 113.783 387.54C113.783 385.79 115.219 384.354 116.969 384.354H190.968C192.718 384.354 194.154 385.79 194.154 387.54C194.154 389.291 192.718 390.727 190.968 390.727Z" fill="white"/>
<path d="M358.217 323.055H306.566V351.237H358.217V323.055Z" fill="#B2B6BB"/>
<path d="M358.217 323.055H347.223V351.237H358.217V323.055Z" fill="#61656D"/>
<path d="M370.692 331.222L364.993 303.265" stroke="#868A91" stroke-width="0.165813" stroke-miterlimit="10"/>
<path d="M372.263 293.841L371.455 330.19" stroke="#868A91" stroke-width="0.165813" stroke-miterlimit="10"/>
<path d="M380.52 300.573L371.859 311.477" stroke="#868A91" stroke-width="0.165813" stroke-miterlimit="10"/>
<path d="M375 338.178L374.148 336.877C373.295 335.575 372.846 334.05 372.846 332.479V329.383H369.525V332.479C369.525 334.05 369.077 335.575 368.224 336.877L367.371 338.178C365.576 340.915 364.993 344.236 365.801 347.422L366.788 351.237H375.673L376.661 347.422C377.334 344.236 376.795 340.915 375 338.178Z" fill="#868A91"/>
<path d="M375 338.178L374.148 336.877C373.295 335.575 372.846 334.05 372.846 332.479V329.383H371.904V332.479C371.904 334.05 372.308 335.351 372.981 336.832L373.968 338.717C376.391 344.236 371.814 351.237 371.814 351.237H375.629L376.616 347.422C377.334 344.236 376.795 340.915 375 338.178Z" fill="#61656D"/>
<path d="M368.448 320.318L378.77 311.747" stroke="#868A91" stroke-width="0.165813" stroke-miterlimit="10"/>
<path d="M360.685 318.388L369.795 327.004" stroke="#868A91" stroke-width="0.165813" stroke-miterlimit="10"/>
<path d="M372.083 304.297L368 295.816C366.519 292.809 368.718 289.309 372.083 289.309C375.449 289.309 377.648 292.809 376.167 295.816L372.083 304.297Z" fill="#FF7360"/>
<path opacity="0.3" d="M372.083 304.297L368 295.816C366.519 292.809 368.718 289.309 372.083 289.309C375.449 289.309 377.648 292.809 376.167 295.816L372.083 304.297Z" fill="white"/>
<path opacity="0.3" d="M372.263 289.309L372.083 304.297L376.167 295.816C377.603 292.854 375.494 289.444 372.263 289.309Z" fill="white"/>
<path d="M367.551 315.606L361.583 308.516C359.473 306.003 360.685 302.099 363.916 301.291C367.102 300.483 370.064 303.31 369.436 306.541L367.551 315.606Z" fill="#FF7360"/>
<path opacity="0.3" d="M369.391 306.496C370.064 303.265 367.102 300.438 363.871 301.246L367.506 315.516L369.391 306.496Z" fill="white"/>
<path d="M366.698 324.042L364.006 317.266C363.019 314.843 359.877 314.26 358.127 316.189C356.377 318.119 357.23 321.215 359.698 321.978L366.698 324.042Z" fill="#FF7360"/>
<path opacity="0.3" d="M366.698 324.042L364.006 317.266C363.019 314.843 359.877 314.26 358.127 316.189C356.377 318.119 357.23 321.215 359.698 321.978L366.698 324.042Z" fill="white"/>
<path opacity="0.3" d="M358.217 316.055L366.698 324.042L364.006 317.266C363.018 314.888 360.012 314.305 358.217 316.055Z" fill="white"/>
<path d="M371.231 318.119L374.193 310.939C375.225 308.381 378.59 307.798 380.43 309.862C382.27 311.926 381.328 315.202 378.68 315.965L371.231 318.119Z" fill="#FF7360"/>
<path opacity="0.3" d="M371.231 318.119L374.193 310.939C375.225 308.381 378.59 307.798 380.43 309.862C382.27 311.926 381.328 315.202 378.68 315.965L371.231 318.119Z" fill="white"/>
<path d="M371.5 326.825L385.591 319.106" stroke="#868A91" stroke-width="0.165813" stroke-miterlimit="10"/>
<path d="M373.833 325.523L378.949 318.523C380.789 316.055 384.559 316.279 385.995 319.016C387.431 321.754 385.546 325.03 382.494 325.164L373.833 325.523Z" fill="#FF7360"/>
<path opacity="0.3" d="M373.833 325.523L378.949 318.523C380.789 316.055 384.559 316.279 385.995 319.016C387.431 321.754 385.546 325.03 382.494 325.164L373.833 325.523Z" fill="white"/>
<path d="M386.129 322.741C385.501 324.087 384.155 325.164 382.494 325.209L373.833 325.568L385.995 319.061C386.623 320.273 386.623 321.619 386.129 322.741Z" fill="#FF7360"/>
<path opacity="0.3" d="M374.193 310.939L371.231 318.119L380.43 309.862C378.59 307.843 375.225 308.381 374.193 310.939Z" fill="white"/>
<path d="M376.571 352.807H274.66V446.372H376.571V352.807Z" fill="#DADDDF"/>
<path d="M371.859 439.236H279.012V365.821L371.859 365.911V439.236ZM279.686 438.563H371.186V366.584H279.686V438.563Z" fill="#B2B6BB"/>
<path d="M271.204 354.288H379.847C380.699 354.288 381.372 353.615 381.372 352.762C381.372 351.91 380.699 351.237 379.847 351.237H271.204C270.352 351.237 269.679 351.91 269.679 352.762C269.723 353.615 270.397 354.288 271.204 354.288Z" fill="#DADDDF"/>
<path d="M278.996 402.726H371.841V402.053H278.996V402.726Z" fill="#B2B6BB"/>
<path d="M321.823 377.623C323.111 377.623 324.157 376.578 324.157 375.29C324.157 374.001 323.111 372.956 321.823 372.956C320.535 372.956 319.49 374.001 319.49 375.29C319.49 376.578 320.535 377.623 321.823 377.623Z" fill="#B2B6BB"/>
<path opacity="0.15" d="M322.676 375.29C322.676 374.257 322.003 373.405 321.105 373.091C321.33 373.001 321.599 372.956 321.868 372.956C323.17 372.956 324.202 373.988 324.202 375.29C324.202 376.591 323.17 377.623 321.868 377.623C321.599 377.623 321.375 377.578 321.105 377.489C322.003 377.174 322.676 376.322 322.676 375.29Z" fill="black"/>
<path d="M321.823 413.747C323.111 413.747 324.157 412.703 324.157 411.414C324.157 410.125 323.111 409.08 321.823 409.08C320.535 409.08 319.49 410.125 319.49 411.414C319.49 412.703 320.535 413.747 321.823 413.747Z" fill="#B2B6BB"/>
<path opacity="0.15" d="M322.676 411.414C322.676 410.382 322.003 409.529 321.105 409.215C321.33 409.125 321.599 409.08 321.868 409.08C323.17 409.08 324.202 410.113 324.202 411.414C324.202 412.715 323.17 413.747 321.868 413.747C321.599 413.747 321.375 413.703 321.105 413.613C322.003 413.299 322.676 412.446 322.676 411.414Z" fill="black"/>
<path d="M381.328 357.429L376.571 354.288H274.66V355.724L381.328 357.429Z" fill="#B2B6BB"/>
<path d="M373.609 446.372L375.943 472.264C376.122 473.207 375.404 474.104 374.462 474.104C373.834 474.104 373.25 473.7 373.026 473.072L366.25 446.372H373.609Z" fill="#DADDDF"/>
<path d="M371.141 449.244L366.923 448.436L366.205 446.372H373.564L375.898 472.264C376.033 472.982 375.629 473.7 375 473.97L371.141 449.244Z" fill="#B2B6BB"/>
<path d="M306.386 446.372L304.053 472.264C303.873 473.207 304.591 474.104 305.534 474.104C306.162 474.104 306.745 473.7 306.97 473.072L313.746 446.372H306.386Z" fill="#DADDDF"/>
<path d="M307.688 460.148L305.175 459.52L306.386 446.372H313.746L306.97 473.072C306.745 473.7 306.162 474.104 305.534 474.104C305.489 474.104 305.489 474.104 305.444 474.104L307.688 460.148Z" fill="#B2B6BB"/>
<path d="M279.237 446.372L276.903 472.264C276.724 473.207 277.442 474.104 278.384 474.104C279.013 474.104 279.596 473.7 279.82 473.072L286.596 446.372H279.237Z" fill="#DADDDF"/>
<path d="M282.109 448.615L278.878 448.032L279.237 446.372H286.596L279.82 473.072C279.596 473.7 279.012 474.104 278.384 474.104C278.339 474.104 278.339 474.104 278.294 474.104L282.109 448.615Z" fill="#B2B6BB"/>
<path d="M207.482 191.437V196.597C207.482 203.957 213.45 209.88 220.765 209.88C228.124 209.88 234.048 203.912 234.048 196.597V191.437H207.482Z" fill="#21252B"/>
<path opacity="0.2" d="M207.482 191.437V196.597C207.482 203.957 213.45 209.88 220.765 209.88C228.124 209.88 234.048 203.912 234.048 196.597V191.437H207.482Z" fill="black"/>
<path d="M145.779 447.942H90.3133C88.9222 447.942 87.8003 446.82 87.8003 445.429V432.55C87.8003 431.159 88.9222 430.037 90.3133 430.037H145.779C147.17 430.037 148.292 431.159 148.292 432.55V445.429C148.292 446.82 147.17 447.942 145.779 447.942Z" fill="#21252B"/>
<path d="M142.862 447.942H87.3962C86.0051 447.942 84.8832 446.82 84.8832 445.429V432.55C84.8832 431.159 86.0051 430.037 87.3962 430.037H142.862C144.253 430.037 145.375 431.159 145.375 432.55V445.429C145.375 446.82 144.253 447.942 142.862 447.942Z" fill="#3F4249"/>
<path d="M96.5962 440.493H94.6213L94.2627 441.39H93.275L95.1602 437.172H96.1021L97.9869 441.39H96.9552L96.5962 440.493ZM96.2821 439.775L95.609 438.159L94.9358 439.775H96.2821Z" fill="white"/>
<path d="M98.4357 437.217H100.365C100.814 437.217 101.218 437.307 101.577 437.486C101.936 437.666 102.205 437.89 102.385 438.204C102.564 438.518 102.654 438.877 102.654 439.326C102.654 439.73 102.564 440.134 102.385 440.448C102.205 440.762 101.936 441.031 101.577 441.166C101.218 441.346 100.814 441.435 100.365 441.435H98.4357V437.217ZM100.276 440.628C100.679 440.628 101.038 440.493 101.263 440.269C101.487 440.044 101.622 439.73 101.622 439.326C101.622 438.922 101.487 438.608 101.263 438.384C101.038 438.159 100.679 438.025 100.276 438.025H99.378V440.628H100.276Z" fill="white"/>
<path d="M103.417 437.217H105.347C105.796 437.217 106.199 437.307 106.558 437.486C106.917 437.666 107.187 437.89 107.366 438.204C107.546 438.518 107.635 438.877 107.635 439.326C107.635 439.73 107.546 440.134 107.366 440.448C107.187 440.762 106.917 441.031 106.558 441.166C106.199 441.346 105.796 441.435 105.347 441.435H103.417V437.217ZM105.257 440.628C105.661 440.628 106.02 440.493 106.244 440.269C106.469 440.044 106.603 439.73 106.603 439.326C106.603 438.922 106.469 438.608 106.244 438.384C106.02 438.159 105.661 438.025 105.257 438.025H104.36V440.628H105.257Z" fill="white"/>
<path d="M110.956 437.98H109.609V437.172H113.289V437.98H111.943V441.39H110.956V437.98Z" fill="white"/>
<path d="M114.591 441.211C114.232 441.031 113.963 440.762 113.783 440.448C113.604 440.134 113.469 439.73 113.469 439.326C113.469 438.922 113.559 438.563 113.783 438.204C113.963 437.89 114.276 437.621 114.591 437.441C114.905 437.262 115.353 437.172 115.757 437.172C116.206 437.172 116.566 437.262 116.925 437.441C117.284 437.621 117.552 437.89 117.732 438.204C117.911 438.518 118.046 438.922 118.046 439.326C118.046 439.73 117.956 440.089 117.732 440.448C117.552 440.762 117.239 441.031 116.925 441.211C116.566 441.39 116.161 441.48 115.757 441.48C115.309 441.48 114.905 441.39 114.591 441.211ZM116.43 440.493C116.61 440.358 116.79 440.224 116.925 439.999C117.059 439.775 117.104 439.551 117.104 439.281C117.104 439.012 117.059 438.788 116.925 438.563C116.79 438.339 116.655 438.204 116.43 438.07C116.251 437.935 116.027 437.89 115.757 437.89C115.488 437.89 115.264 437.935 115.084 438.07C114.905 438.204 114.725 438.339 114.591 438.563C114.456 438.788 114.411 439.012 114.411 439.281C114.411 439.551 114.456 439.775 114.591 439.999C114.725 440.224 114.86 440.358 115.084 440.493C115.264 440.628 115.488 440.672 115.757 440.672C116.027 440.672 116.251 440.583 116.43 440.493Z" fill="white"/>
<path d="M121.322 441.211C120.963 441.031 120.694 440.762 120.515 440.448C120.335 440.134 120.2 439.73 120.2 439.326C120.2 438.922 120.29 438.518 120.515 438.204C120.694 437.89 120.963 437.621 121.322 437.441C121.681 437.262 122.04 437.172 122.489 437.172C122.848 437.172 123.162 437.217 123.476 437.352C123.79 437.486 124.014 437.666 124.239 437.89L123.61 438.474C123.341 438.159 122.983 437.98 122.534 437.98C122.265 437.98 122.04 438.025 121.815 438.159C121.591 438.294 121.456 438.429 121.322 438.653C121.187 438.877 121.142 439.102 121.142 439.371C121.142 439.64 121.187 439.865 121.322 440.089C121.456 440.313 121.591 440.448 121.815 440.583C122.04 440.717 122.265 440.762 122.534 440.762C122.938 440.762 123.296 440.583 123.61 440.269L124.239 440.852C124.059 441.076 123.79 441.301 123.476 441.39C123.162 441.525 122.848 441.57 122.489 441.57C122.085 441.48 121.681 441.39 121.322 441.211Z" fill="white"/>
<path d="M127.605 440.493H125.63L125.271 441.39H124.284L126.169 437.172H127.111L128.996 441.39H127.964L127.605 440.493ZM127.291 439.775L126.618 438.159L125.945 439.775H127.291Z" fill="white"/>
<path d="M132.092 441.39L131.285 440.224H131.239H130.387V441.39H129.399V437.172H131.239C131.598 437.172 131.957 437.217 132.227 437.352C132.496 437.486 132.721 437.666 132.855 437.89C132.99 438.115 133.08 438.384 133.08 438.698C133.08 439.012 132.99 439.281 132.855 439.506C132.721 439.73 132.496 439.91 132.227 440.044L133.169 441.39H132.092ZM131.868 438.159C131.733 438.025 131.509 437.98 131.194 437.98H130.387V439.461H131.194C131.509 439.461 131.688 439.416 131.868 439.281C132.002 439.147 132.092 438.967 132.092 438.743C132.092 438.474 132.002 438.294 131.868 438.159Z" fill="white"/>
<path d="M134.65 437.98H133.304V437.172H136.984V437.98H135.637V441.39H134.65V437.98Z" fill="white"/>
<path d="M216.771 447.942H161.305C159.914 447.942 158.792 446.82 158.792 445.429V432.55C158.792 431.159 159.914 430.037 161.305 430.037H216.771C218.163 430.037 219.284 431.159 219.284 432.55V445.429C219.284 446.82 218.163 447.942 216.771 447.942Z" fill="#FF7360"/>
<path opacity="0.15" d="M216.771 447.942H161.305C159.914 447.942 158.792 446.82 158.792 445.429V432.55C158.792 431.159 159.914 430.037 161.305 430.037H216.771C218.163 430.037 219.284 431.159 219.284 432.55V445.429C219.284 446.82 218.163 447.942 216.771 447.942Z" fill="black"/>
<path d="M213.855 447.942H158.389C156.997 447.942 155.876 446.82 155.876 445.429V432.55C155.876 431.159 156.997 430.037 158.389 430.037H213.855C215.246 430.037 216.367 431.159 216.367 432.55V445.429C216.367 446.82 215.246 447.942 213.855 447.942Z" fill="#FF7360"/>
<path d="M174.319 439.595C174.454 439.775 174.544 439.999 174.544 440.269C174.544 440.628 174.409 440.942 174.095 441.121C173.826 441.301 173.377 441.435 172.838 441.435H170.639V437.217H172.704C173.197 437.217 173.601 437.307 173.87 437.531C174.14 437.756 174.274 437.98 174.274 438.339C174.274 438.563 174.229 438.743 174.14 438.877C174.05 439.012 173.915 439.147 173.736 439.236C174.005 439.281 174.185 439.416 174.319 439.595ZM171.627 437.935V438.922H172.614C172.838 438.922 173.018 438.877 173.152 438.788C173.287 438.698 173.332 438.563 173.332 438.429C173.332 438.294 173.287 438.159 173.152 438.07C173.018 437.98 172.838 437.935 172.614 437.935H171.627ZM173.377 440.538C173.511 440.448 173.556 440.313 173.556 440.134C173.556 439.775 173.287 439.595 172.793 439.595H171.672V440.628H172.793C173.018 440.672 173.242 440.628 173.377 440.538Z" fill="white"/>
<path d="M175.755 440.987C175.441 440.672 175.262 440.179 175.262 439.551V437.172H176.249V439.506C176.249 440.269 176.563 440.628 177.191 440.628C177.505 440.628 177.73 440.538 177.909 440.358C178.089 440.179 178.134 439.91 178.134 439.506V437.172H179.076V439.551C179.076 440.179 178.896 440.628 178.582 440.987C178.268 441.301 177.775 441.48 177.191 441.48C176.518 441.48 176.069 441.301 175.755 440.987Z" fill="white"/>
<path d="M181.948 439.91V441.39H180.961V439.91L179.345 437.217H180.377L181.499 439.102L182.621 437.217H183.564L181.948 439.91Z" fill="white"/>
<path d="M189.577 437.217V441.435H188.769L186.66 438.877V441.435H185.718V437.217H186.525L188.634 439.775V437.217H189.577Z" fill="white"/>
<path d="M191.417 441.211C191.058 441.031 190.788 440.762 190.609 440.448C190.429 440.134 190.295 439.73 190.295 439.326C190.295 438.922 190.384 438.563 190.609 438.204C190.788 437.89 191.102 437.621 191.417 437.441C191.731 437.262 192.179 437.172 192.583 437.172C193.032 437.172 193.391 437.262 193.75 437.441C194.109 437.621 194.378 437.89 194.558 438.204C194.737 438.518 194.872 438.922 194.872 439.326C194.872 439.73 194.782 440.089 194.558 440.448C194.378 440.762 194.064 441.031 193.75 441.211C193.391 441.39 192.987 441.48 192.583 441.48C192.179 441.48 191.776 441.39 191.417 441.211ZM193.301 440.493C193.481 440.358 193.66 440.224 193.795 439.999C193.93 439.775 193.974 439.551 193.974 439.281C193.974 439.012 193.93 438.788 193.795 438.563C193.66 438.339 193.526 438.204 193.301 438.07C193.122 437.935 192.897 437.89 192.628 437.89C192.359 437.89 192.135 437.935 191.955 438.07C191.776 438.204 191.596 438.339 191.461 438.563C191.327 438.788 191.282 439.012 191.282 439.281C191.282 439.551 191.327 439.775 191.461 439.999C191.596 440.224 191.731 440.358 191.955 440.493C192.135 440.628 192.359 440.672 192.628 440.672C192.897 440.672 193.077 440.583 193.301 440.493Z" fill="white"/>
<path d="M201.872 437.217L200.482 441.435H199.449L198.507 438.563L197.565 441.435H196.532L195.141 437.217H196.173L197.116 440.179L198.103 437.217H199L199.943 440.179L200.931 437.217H201.872Z" fill="white"/>
<path opacity="0.3" d="M234.003 163.973C234.003 164.108 234.048 164.287 234.048 164.422C234.048 164.243 234.003 164.108 234.003 163.973Z" fill="black"/>
<path opacity="0.3" d="M222.65 153.697H85.2872C80.7549 153.697 76.4917 156.3 74.4275 159.62C75.8186 158.678 77.7482 158.813 80.0369 158.813H225.701C229.874 158.813 233.554 159.89 234.003 163.928C233.42 158.184 228.573 153.697 222.65 153.697Z" fill="black"/>
<path d="M231.804 216.387L227.227 214.637L221.214 214.906C220.72 214.951 220.406 215.355 220.585 215.804C220.72 216.118 221.034 216.342 221.393 216.342L227.003 216.612L230.099 218.496L227.003 216.612L222.021 216.836C221.618 216.881 221.348 217.195 221.438 217.554C221.528 217.868 221.842 218.048 222.201 218.048L227.137 218.272L231.625 220.965L227.137 218.272L223.457 218.811C223.188 218.855 223.054 219.125 223.143 219.349C223.233 219.529 223.457 219.663 223.682 219.663H227.81L232.118 221.907L231.804 216.387Z" fill="#FC9D9D"/>
<path d="M231.804 216.387L227.227 214.637L221.214 214.906C220.72 214.951 220.406 215.355 220.585 215.804C220.72 216.118 221.034 216.342 221.393 216.342L227.003 216.612L230.099 218.496L227.003 216.612L222.021 216.836C221.618 216.881 221.348 217.195 221.438 217.554C221.528 217.868 221.842 218.048 222.201 218.048L227.137 218.272L231.625 220.965L227.137 218.272L223.457 218.811C223.188 218.855 223.054 219.125 223.143 219.349C223.233 219.529 223.457 219.663 223.682 219.663H227.81L232.118 221.907L231.804 216.387Z" fill="#FC9D9D"/>
<path opacity="0.15" d="M231.804 216.387L227.227 214.637L221.214 214.906C220.72 214.951 220.406 215.355 220.585 215.804C220.72 216.118 221.034 216.342 221.393 216.342L227.003 216.612L230.099 218.496L227.003 216.612L222.021 216.836C221.618 216.881 221.348 217.195 221.438 217.554C221.528 217.868 221.842 218.048 222.201 218.048L227.137 218.272L231.625 220.965L227.137 218.272L223.457 218.811C223.188 218.855 223.054 219.125 223.143 219.349C223.233 219.529 223.457 219.663 223.682 219.663H227.81L232.118 221.907L231.804 216.387Z" fill="black"/>
<path d="M231.849 214.772L237.817 220.426C238.132 220.74 238.58 220.964 239.029 221.144L252.671 225.093L249.036 233.17L238.491 228.324C238.132 228.144 237.728 228.055 237.369 228.055L236.74 228.01C234.183 228.055 231.894 227.202 230.144 225.542H230.099C229.875 225.317 229.56 225.138 229.246 225.003C228.08 224.599 225.208 223.567 225.208 223.567C225.028 223.522 224.938 223.343 224.983 223.163C225.163 222.445 225.926 221.907 226.868 221.997L228.977 222.221C230.099 222.311 230.952 221.458 230.727 220.516L229.516 216.387C229.471 216.118 229.246 215.894 229.022 215.759L222.156 212.079C221.842 211.945 221.707 211.586 221.842 211.361C221.977 211.002 222.425 210.868 222.784 211.002C224.579 211.675 230.099 213.874 231.355 214.413C231.58 214.547 231.714 214.637 231.849 214.772Z" fill="#FC9D9D"/>
<path opacity="0.15" d="M252.043 224.869L249.395 228.548C248.453 229.76 247.286 230.343 245.85 229.76L239.298 227.023C238.76 226.753 238.177 226.664 237.638 226.708C236.112 226.843 232.836 226.888 230.054 225.407C230.099 225.452 230.144 225.452 230.144 225.452H230.189C231.939 227.157 234.228 227.965 236.785 227.92L237.414 227.965C237.818 227.965 238.221 228.055 238.536 228.234L249.036 233.126V233.036L252.043 224.869Z" fill="black"/>
<path d="M329.811 448.526C329.318 450.41 329.183 451.128 329.273 453.013L329.228 465.623C329.318 467.822 329.901 469.976 331.023 471.861L331.292 472.309C331.92 473.431 333.132 474.104 334.433 474.104H338.023C339.684 474.104 341.12 472.983 341.523 471.367C341.972 469.482 342.062 467.553 341.703 465.668L338.652 452.16C338.427 450.994 338.158 449.737 337.575 448.526H329.811Z" fill="#FF7360"/>
<path d="M280.942 418.953L280.179 442.468C280.179 444.666 279.596 447 278.743 448.212L268.243 466.521L270.666 469.841L280.179 465.085L288.661 449.782C288.616 447.179 288.885 445.609 289.379 442.109L293.552 416.171L280.942 418.953Z" fill="#FC9D9D"/>
<path opacity="0.15" d="M280.224 450.5C281.211 449.064 282.423 445.698 282.692 444.128L283.859 435.736C283.949 435.108 284.442 434.614 285.071 434.525L290.86 433.717L290.949 432.46H280.493L280.179 442.467C280.134 444.083 279.82 446.641 278.743 448.211L268.243 466.52L269.723 468.989L280.224 450.5Z" fill="black"/>
<path d="M263.261 469.572L268.242 466.52C271.877 467.104 275.512 465.758 277.846 462.93L288.661 449.827C290.635 454 291.308 458.667 290.635 463.245L289.064 474.149H287.808L287.449 462.975C287.404 462.168 286.417 461.809 285.878 462.437L279.282 470.514C277.397 472.803 274.57 474.149 271.608 474.149H261.332C260.524 474.149 259.985 473.341 260.3 472.579C260.928 471.187 261.96 470.155 263.261 469.572Z" fill="#FF7360"/>
<path d="M329.318 442.871C329.856 447.404 330.08 451.936 330.036 456.513L329.946 461.943C330.036 464.322 332.01 466.206 334.388 466.206H335.106C337.799 466.206 339.863 463.828 339.504 461.135L338.248 454.673C337.619 451.398 337.395 448.032 337.575 444.711L338.786 422.767L327.478 422.947L329.318 442.871Z" fill="#FC9D9D"/>
<path d="M286.956 270.148L285.744 284.956L284.308 301.156C283.545 309.817 283.051 318.478 282.827 327.139L280 432.46H291.398L312.624 293.483C312.759 292.54 313.566 291.867 314.509 291.867C315.496 291.867 316.349 292.63 316.438 293.617L327.523 432.46L338.786 432.371L344.351 332.21C345.517 310.849 343.902 289.444 339.549 268.487L338.921 265.525L286.956 270.148Z" fill="#3F4249"/>
<path opacity="0.15" d="M328.33 432.505C328.33 432.505 329.677 446.596 329.766 448.481V448.526C329.946 451.173 329.991 453.821 329.946 456.513L329.856 461.943C329.946 464.277 331.786 466.117 334.074 466.206C332.01 464.591 332.19 461.988 332.1 460.014L331.741 436.14C331.741 435.377 332.279 434.704 333.042 434.57L338.068 433.672L338.113 432.55L328.33 432.505Z" fill="black"/>
<path opacity="0.2" d="M314.554 291.912C315.047 291.912 315.496 292.091 315.855 292.405C316.214 292.72 316.438 293.168 316.483 293.662L327.567 432.505L331.606 432.46L324.785 301.605C324.471 296.175 319.983 291.912 314.554 291.912Z" fill="black"/>
<path d="M341.344 219.394C341.344 219.394 342.556 213.381 343.992 206.963C344.979 202.386 342.107 197.899 337.53 196.911L327.433 194.713L323.753 193.95L302.886 194.129L300.463 194.802L291.084 197.405C288.212 198.303 286.148 200.053 284.801 202.386L284.757 202.521C284.353 203.194 273.583 230.792 273.583 230.792L251.953 224.958L248.901 233.26L274.929 245.287C277.98 246.678 281.571 245.421 283.051 242.46L287.315 233.978L289.11 239.543C292.116 249.909 287.808 263.73 286.013 268.711C285.699 269.609 286.372 270.551 287.315 270.551H305.399L321.913 270.506H339.235C340.267 270.506 341.03 269.609 340.85 268.577C340.805 268.308 338.158 259.781 337.44 249.595C337.171 245.96 337.53 242.28 338.248 238.69L341.344 219.394Z" fill="#FF7360"/>
<path opacity="0.6" d="M325.369 198.751L327.792 195.296L328.106 194.847L327.433 194.713L325.997 194.398L318.144 195.341L301.719 194.443L300.508 194.802L299.835 194.982L302.303 198.662C304.95 202.476 309.258 204.899 313.925 204.899C314.195 204.899 314.464 204.899 314.733 204.854C319.041 204.585 322.945 202.296 325.369 198.751Z" fill="black"/>
<path opacity="0.2" d="M286.956 270.327L285.744 284.956L284.846 295.053C283.725 307.798 283.007 320.542 282.648 333.332L280 432.505H284.532L291.667 294.38L292.924 270.417H287.359L287.135 270.372L286.956 270.327Z" fill="black"/>
<path d="M343.274 269.43L337.799 269.385C337.709 269.385 337.574 269.385 337.485 269.43L332.548 270.417C331.696 270.596 330.933 271.09 330.439 271.853L327.926 275.757C327.747 276.026 327.792 276.385 328.061 276.61C328.33 276.834 328.734 276.789 328.958 276.52L331.83 273.154L335.42 272.167L332.1 273.693L329.452 277.866C329.273 278.18 329.317 278.584 329.542 278.808C329.856 279.123 330.35 279.123 330.664 278.808C331.696 277.731 333.805 275.533 333.805 275.533L336.273 274.5L334.074 276.116L331.516 279.302C331.292 279.616 331.337 280.065 331.606 280.289C331.875 280.514 332.279 280.514 332.548 280.244L335.6 277.462L338.382 276.116L334.972 279.167C334.702 279.437 334.658 279.841 334.882 280.11C335.106 280.379 335.42 280.424 335.735 280.289L340.357 277.776L343.722 277.956C346.28 278.09 348.569 276.43 349.197 273.962L349.287 273.648L368.404 246.543L358.307 239.408L343.274 269.43Z" fill="#FC9D9D"/>
<path d="M342.107 199.604L372.846 230.927C375.225 233.35 375.539 237.164 373.519 239.947L356.871 263.012L349.332 256.954L359.519 237.164L337.979 218.496L342.107 199.604Z" fill="#FF7360"/>
<path opacity="0.15" d="M343.857 219.618L342.87 214.233C342.825 213.919 342.376 213.919 342.286 214.233L341.12 221.279L359.473 237.209L360.326 235.684C360.685 235.055 360.55 234.248 360.012 233.754L343.857 219.618Z" fill="black"/>
<path opacity="0.15" d="M349.556 257.179L353.685 262.474C353.954 262.788 353.954 263.282 353.729 263.596L347.716 272.75C347.716 272.75 345.742 277.956 340.85 277.821L343.767 277.956C346.325 278.09 348.614 276.43 349.242 273.962L349.332 273.648L356.826 263.012L349.556 257.179Z" fill="black"/>
<path opacity="0.6" d="M349.287 256.999L350.229 255.249L358.037 261.397L356.871 263.057L349.287 256.999Z" fill="black"/>
<path d="M324.965 158.184C328.932 158.184 332.145 154.97 332.145 151.004C332.145 147.039 328.932 143.824 324.965 143.824C320.998 143.824 317.785 147.039 317.785 151.004C317.785 154.97 320.998 158.184 324.965 158.184Z" fill="#21252B"/>
<path d="M329.003 156.928C327.298 158.095 325.099 158.543 322.945 157.915C319.131 156.793 316.932 152.844 318.009 149.03C318.099 148.761 318.188 148.536 318.278 148.312C321.554 148.716 327.163 151.588 329.003 156.928Z" fill="#FF7360"/>
<path d="M321.419 180.801C321.105 188.52 318.772 192.828 323.08 193.007C329.946 193.322 335.824 187.263 336.138 179.545C336.453 171.826 331.157 165.32 324.292 165.005C322.497 171.647 321.734 173.083 321.419 180.801Z" fill="#21252B"/>
<path d="M318.404 181.199C318.992 174.508 313.903 168.596 307.041 167.994C300.176 167.392 294.135 172.328 293.552 179.019C292.964 185.71 298.053 191.622 304.914 192.224C311.78 192.826 317.82 187.89 318.404 181.199Z" fill="#21252B"/>
<path d="M321.734 175.551L322.182 191.212C322.227 192.469 323.08 193.591 324.292 193.905L326.087 194.398L323.977 197.45C321.823 200.546 318.413 202.566 314.643 202.79C314.419 202.79 314.15 202.79 313.925 202.835C309.842 202.88 306.072 200.771 303.739 197.405L301.719 194.488L303.739 193.95C304.861 193.636 305.713 192.648 305.848 191.482L307.912 172.903L321.734 175.551Z" fill="#FC9D9D"/>
<path d="M310.829 187.129L311.547 187.174C316.887 187.398 321.375 183.27 321.599 177.929L322.182 164.377C322.272 162.582 320.881 161.101 319.086 161.012L306.476 160.473C304.188 160.383 302.213 162.178 302.123 164.467L301.585 177.032C301.36 182.372 305.489 186.904 310.829 187.129Z" fill="#FC9D9D"/>
<path d="M311.502 173.711C312.072 173.711 312.534 173.249 312.534 172.679C312.534 172.109 312.072 171.647 311.502 171.647C310.932 171.647 310.47 172.109 310.47 172.679C310.47 173.249 310.932 173.711 311.502 173.711Z" fill="#21252B"/>
<path d="M311.053 173.262C311.179 173.262 311.278 173.162 311.278 173.038C311.278 172.914 311.179 172.814 311.053 172.814C310.928 172.814 310.829 172.914 310.829 173.038C310.829 173.162 310.928 173.262 311.053 173.262Z" fill="white"/>
<path d="M303.425 173.711C303.995 173.711 304.457 173.249 304.457 172.679C304.457 172.109 303.995 171.647 303.425 171.647C302.855 171.647 302.393 172.109 302.393 172.679C302.393 173.249 302.855 173.711 303.425 173.711Z" fill="#21252B"/>
<path d="M302.886 173.218C303.012 173.218 303.11 173.117 303.11 172.993C303.11 172.869 303.012 172.769 302.886 172.769C302.76 172.769 302.662 172.869 302.662 172.993C302.662 173.117 302.76 173.218 302.886 173.218Z" fill="white"/>
<g opacity="0.3">
<path opacity="0.3" d="M307.508 178.423L308.899 178.513C309.079 178.513 309.213 178.378 309.213 178.244C309.213 178.064 309.079 177.929 308.944 177.929L307.553 177.84C307.194 177.795 306.925 177.526 306.97 177.167C307.015 176.808 307.284 176.538 307.643 176.583C307.822 176.583 307.957 176.449 307.957 176.314C307.957 176.134 307.822 176 307.688 176C307.015 175.955 306.386 176.449 306.341 177.167C306.297 177.795 306.835 178.378 307.508 178.423Z" fill="black"/>
</g>
<path d="M297.995 170.749C299.52 169.672 298.982 167.653 298.982 167.653C298.713 166.8 298.533 165.858 298.488 164.826C298.443 161.595 300.194 160.338 301.091 159.934C301.405 159.8 301.63 159.441 301.674 159.082C302.348 149.03 316.124 146.651 323.349 152.62C327.702 156.255 328.689 160.293 328.33 164.108C328.33 164.108 328.106 165.768 329.632 166.621L327.747 167.384C326.984 170.166 325.817 172.724 325.099 174.698C324.785 175.551 323.214 172.006 322.496 171.602C322.407 171.557 321.734 172.499 321.285 173.128C321.016 173.532 320.387 173.442 320.253 172.993C319.714 171.288 319.49 169.493 319.58 167.743L319.669 166.127C316.169 165.634 314.823 162.268 314.823 162.268C311.367 166.127 305.534 165.723 303.155 165.364C302.617 165.275 302.078 165.678 302.078 166.262L301.809 172.32C301.809 172.32 300.912 171.422 300.059 169.986L298.443 171.108L297.995 170.749Z" fill="#21252B"/>
<path d="M320.926 178.468C320.926 178.468 325.503 179.231 326.849 174.743C328.196 170.301 322.631 168.954 321.464 173.487L320.432 178.423L320.926 178.468Z" fill="#FC9D9D"/>
<path opacity="0.3" d="M325.638 172.23C325.189 171.871 324.74 171.692 324.291 171.737C323.843 171.782 323.439 172.051 323.125 172.544C322.766 173.038 322.541 173.621 322.451 174.25L322.407 174.743C322.362 175.102 322.99 175.282 323.035 174.833C323.125 174.295 323.125 174.295 323.125 174.295C323.125 174.16 323.304 173.307 323.663 172.859C323.932 172.544 324.157 172.32 324.426 172.32C324.695 172.275 325.009 172.41 325.323 172.679C325.458 172.769 325.638 172.769 325.727 172.634C325.772 172.5 325.772 172.32 325.638 172.23Z" fill="black"/>
<path d="M298.937 173.173C298.758 175.461 300.508 177.481 302.796 177.66C305.085 177.84 307.104 176.089 307.284 173.801C307.329 172.993 307.194 172.23 306.835 171.602C307.733 171.333 308.54 171.512 308.899 171.647C308.72 172.051 308.585 172.544 308.54 172.993C308.361 175.282 310.111 177.301 312.4 177.481C314.688 177.66 316.708 175.91 316.887 173.621C317.067 171.333 315.317 169.313 313.028 169.134C311.412 168.999 309.932 169.852 309.124 171.153C308.675 170.974 307.688 170.704 306.521 171.153C305.848 170.121 304.681 169.448 303.38 169.358C301.136 169.134 299.117 170.839 298.937 173.173ZM309.124 173.038C309.258 171.019 311.053 169.538 313.073 169.672C315.092 169.807 316.573 171.602 316.438 173.621C316.304 175.641 314.509 177.122 312.489 176.987C310.47 176.807 308.944 175.012 309.124 173.038ZM299.476 173.217C299.61 171.198 301.405 169.717 303.425 169.852C305.444 169.986 306.925 171.781 306.79 173.801C306.656 175.82 304.861 177.301 302.841 177.166C300.822 176.987 299.296 175.192 299.476 173.217Z" fill="white"/>
<path d="M322.272 177.84C322.766 177.84 323.17 177.438 323.17 176.942C323.17 176.446 322.766 176.045 322.272 176.045C321.779 176.045 321.375 176.446 321.375 176.942C321.375 177.438 321.779 177.84 322.272 177.84Z" fill="#FF7360"/>
<path opacity="0.15" d="M321.913 177.705C322.452 177.75 322.945 177.346 322.99 176.808C322.99 176.628 322.945 176.449 322.855 176.269C323.08 176.449 323.214 176.718 323.17 177.032C323.125 177.526 322.676 177.929 322.182 177.885C322.003 177.885 321.823 177.795 321.689 177.66C321.778 177.705 321.823 177.705 321.913 177.705Z" fill="black"/>
<path d="M304.188 167.204C308.271 167.339 311.053 166.037 312.669 164.96C314.419 163.749 315.227 162.537 315.272 162.492C315.361 162.358 315.317 162.223 315.182 162.133C315.047 162.044 314.913 162.088 314.823 162.223C314.778 162.268 311.682 166.935 304.232 166.666C304.098 166.666 303.963 166.755 303.963 166.935C303.918 167.07 304.053 167.159 304.188 167.204Z" fill="#21252B"/>
<path opacity="0.15" d="M321.823 178.513H320.343L321.913 181.654L321.823 178.513Z" fill="black"/>
<path opacity="0.15" d="M306.072 185.513C307.508 186.366 309.213 186.815 311.053 186.86C311.457 186.86 311.816 186.86 312.22 186.86C312.355 186.86 312.534 186.86 312.669 186.815C312.714 186.815 312.714 186.815 312.759 186.815C312.983 186.77 313.207 186.77 313.432 186.725C313.521 186.725 313.611 186.68 313.701 186.68C315.227 186.411 316.349 185.872 317.111 185.424C317.246 185.334 317.426 185.379 317.515 185.513C317.605 185.648 317.56 185.827 317.426 185.917C316.483 186.456 315.002 187.129 312.983 187.353C311.951 188.116 310.156 189.103 307.912 189.058C307.194 189.058 306.431 188.969 305.758 188.834L306.072 185.513Z" fill="black"/>
<path d="M306.7 180.083C306.566 180.083 306.476 180.218 306.521 180.353C307.059 181.385 308.047 182.058 309.213 182.058C310.38 182.058 311.367 181.385 311.906 180.353C311.951 180.218 311.906 180.083 311.726 180.083H306.7Z" fill="white"/>
<path opacity="0.6" d="M252.043 224.869L248.991 233.215L250.876 234.068L254.017 225.407L252.043 224.869Z" fill="black"/>
<path opacity="0.15" d="M288.93 215.535L287.943 219.08L286.686 221.189C284.487 224.869 283.724 229.266 284.577 233.485L280.493 242.011C279.461 244.03 276.5 245.556 273.942 244.703L275.019 245.197C278.07 246.588 281.66 245.332 283.141 242.37L287.404 233.888L287.045 232.722C285.923 229.042 286.372 225.048 288.257 221.638L289.334 219.753V215.579C289.379 215.355 289.02 215.31 288.93 215.535Z" fill="black"/>
<path d="M269.499 242.639L270.083 242.908L269.499 242.639Z" fill="black"/>
<path d="M295.751 200.681C296.173 200.681 296.514 200.34 296.514 199.918C296.514 199.497 296.173 199.155 295.751 199.155C295.329 199.155 294.988 199.497 294.988 199.918C294.988 200.34 295.329 200.681 295.751 200.681Z" fill="white"/>
<path d="M281.66 217.644C282.082 217.644 282.423 217.302 282.423 216.881C282.423 216.46 282.082 216.118 281.66 216.118C281.239 216.118 280.897 216.46 280.897 216.881C280.897 217.302 281.239 217.644 281.66 217.644Z" fill="white"/>
<path d="M276.859 242.819C277.28 242.819 277.622 242.477 277.622 242.056C277.622 241.634 277.28 241.293 276.859 241.293C276.437 241.293 276.096 241.634 276.096 242.056C276.096 242.477 276.437 242.819 276.859 242.819Z" fill="white"/>
<path d="M256.261 229.805C256.682 229.805 257.024 229.463 257.024 229.042C257.024 228.621 256.682 228.279 256.261 228.279C255.84 228.279 255.498 228.621 255.498 229.042C255.498 229.463 255.84 229.805 256.261 229.805Z" fill="white"/>
<path d="M336.497 207.951C336.919 207.951 337.26 207.609 337.26 207.188C337.26 206.766 336.919 206.425 336.497 206.425C336.076 206.425 335.734 206.766 335.734 207.188C335.734 207.609 336.076 207.951 336.497 207.951Z" fill="white"/>
<path d="M357.14 219.798C357.562 219.798 357.903 219.456 357.903 219.035C357.903 218.614 357.562 218.272 357.14 218.272C356.718 218.272 356.377 218.614 356.377 219.035C356.377 219.456 356.718 219.798 357.14 219.798Z" fill="white"/>
<path d="M336.183 229.805C336.605 229.805 336.946 229.463 336.946 229.042C336.946 228.621 336.605 228.279 336.183 228.279C335.762 228.279 335.421 228.621 335.421 229.042C335.421 229.463 335.762 229.805 336.183 229.805Z" fill="white"/>
<path d="M320.342 230.029C320.764 230.029 321.105 229.688 321.105 229.266C321.105 228.845 320.764 228.503 320.342 228.503C319.921 228.503 319.58 228.845 319.58 229.266C319.58 229.688 319.921 230.029 320.342 230.029Z" fill="white"/>
<path d="M368.493 243.537C368.915 243.537 369.256 243.195 369.256 242.774C369.256 242.352 368.915 242.011 368.493 242.011C368.072 242.011 367.73 242.352 367.73 242.774C367.73 243.195 368.072 243.537 368.493 243.537Z" fill="white"/>
<path d="M308.675 215.4C309.097 215.4 309.438 215.059 309.438 214.637C309.438 214.216 309.097 213.874 308.675 213.874C308.253 213.874 307.912 214.216 307.912 214.637C307.912 215.059 308.253 215.4 308.675 215.4Z" fill="white"/>
<path d="M321.689 248.563C322.111 248.563 322.452 248.221 322.452 247.8C322.452 247.378 322.111 247.037 321.689 247.037C321.267 247.037 320.926 247.378 320.926 247.8C320.926 248.221 321.267 248.563 321.689 248.563Z" fill="white"/>
<path d="M302.303 239.274C302.725 239.274 303.066 238.932 303.066 238.511C303.066 238.089 302.725 237.748 302.303 237.748C301.881 237.748 301.54 238.089 301.54 238.511C301.54 238.932 301.881 239.274 302.303 239.274Z" fill="white"/>
<path d="M292.924 223.657C293.346 223.657 293.687 223.315 293.687 222.894C293.687 222.473 293.346 222.131 292.924 222.131C292.502 222.131 292.161 222.473 292.161 222.894C292.161 223.315 292.502 223.657 292.924 223.657Z" fill="white"/>
<path d="M332.145 266.333C332.566 266.333 332.907 265.992 332.907 265.57C332.907 265.149 332.566 264.807 332.145 264.807C331.723 264.807 331.382 265.149 331.382 265.57C331.382 265.992 331.723 266.333 332.145 266.333Z" fill="white"/>
<path d="M297.995 263.82C298.416 263.82 298.758 263.479 298.758 263.057C298.758 262.636 298.416 262.294 297.995 262.294C297.573 262.294 297.232 262.636 297.232 263.057C297.232 263.479 297.573 263.82 297.995 263.82Z" fill="white"/>
<path opacity="0.6" d="M316.124 261.083L317.336 263.192C317.426 263.371 317.381 263.596 317.201 263.685C317.022 263.775 316.797 263.73 316.708 263.551L315.496 261.442C315.406 261.262 315.451 261.038 315.631 260.948C315.81 260.813 316.034 260.903 316.124 261.083Z" fill="black"/>
<path opacity="0.6" d="M291.039 202.297L292.251 204.406C292.34 204.585 292.296 204.81 292.116 204.899C291.937 204.989 291.712 204.944 291.622 204.765L290.411 202.656C290.321 202.476 290.366 202.252 290.545 202.162C290.725 202.072 290.949 202.117 291.039 202.297Z" fill="black"/>
<path opacity="0.6" d="M304.771 227.92H307.239C307.418 227.92 307.598 228.1 307.598 228.279C307.598 228.459 307.418 228.638 307.239 228.638H304.771C304.591 228.638 304.412 228.459 304.412 228.279C304.367 228.1 304.546 227.92 304.771 227.92Z" fill="black"/>
<path opacity="0.6" d="M325.054 217.778L326.49 215.804C326.625 215.624 326.849 215.624 326.984 215.714C327.163 215.849 327.163 216.073 327.074 216.208L325.638 218.182C325.503 218.362 325.279 218.362 325.144 218.272C324.964 218.137 324.92 217.913 325.054 217.778Z" fill="black"/>
<path opacity="0.6" d="M330.215 197.585L332.638 197.809C332.818 197.809 332.997 197.988 332.952 198.213C332.952 198.392 332.773 198.572 332.548 198.527L330.125 198.303C329.946 198.303 329.766 198.123 329.811 197.899C329.856 197.674 330.035 197.54 330.215 197.585Z" fill="black"/>
<path opacity="0.6" d="M297.007 252.556L298.443 250.582C298.578 250.402 298.802 250.402 298.937 250.492C299.117 250.627 299.116 250.851 299.027 250.986L297.591 252.96C297.456 253.14 297.232 253.14 297.097 253.05C296.918 252.96 296.873 252.691 297.007 252.556Z" fill="black"/>
<path opacity="0.6" d="M366.384 233.485L367.82 231.51C367.955 231.331 368.179 231.331 368.314 231.42C368.493 231.555 368.493 231.779 368.404 231.914L366.968 233.889C366.833 234.068 366.609 234.068 366.474 233.978C366.294 233.844 366.25 233.619 366.384 233.485Z" fill="black"/>
<path opacity="0.6" d="M347.312 208.758L349.421 209.97C349.601 210.06 349.646 210.284 349.556 210.464C349.466 210.643 349.242 210.688 349.062 210.598L346.953 209.387C346.774 209.297 346.729 209.073 346.819 208.893C346.908 208.714 347.133 208.669 347.312 208.758Z" fill="black"/>
<path opacity="0.6" d="M354.851 251.839L356.96 253.05C357.14 253.14 357.185 253.364 357.095 253.544C357.005 253.723 356.781 253.768 356.601 253.678L354.492 252.467C354.313 252.377 354.268 252.153 354.358 251.973C354.447 251.794 354.672 251.704 354.851 251.839Z" fill="black"/>
<path opacity="0.6" d="M280.808 225.676L282.917 226.888C283.096 226.978 283.141 227.202 283.051 227.382C282.962 227.561 282.737 227.606 282.558 227.516L280.449 226.305C280.269 226.215 280.224 225.991 280.314 225.811C280.404 225.632 280.628 225.542 280.808 225.676Z" fill="black"/>
<path opacity="0.6" d="M261.691 235.504L264.114 235.684C264.294 235.684 264.473 235.863 264.473 236.087C264.473 236.267 264.294 236.446 264.069 236.446L261.646 236.267C261.467 236.267 261.287 236.087 261.287 235.863C261.287 235.639 261.467 235.459 261.691 235.504Z" fill="black"/>
<path opacity="0.6" d="M333.266 248.248L335.69 248.697C335.869 248.742 336.004 248.922 336.004 249.101C335.959 249.281 335.779 249.415 335.6 249.415L333.177 248.966C332.997 248.922 332.863 248.742 332.863 248.563C332.907 248.338 333.087 248.204 333.266 248.248Z" fill="black"/>
<g opacity="0.15">
<path opacity="0.15" d="M372.846 230.972L371.186 229.266C373.026 232.183 372.981 235.998 370.962 238.87L355.121 261.621L356.871 263.057L373.34 240.306C375.763 236.85 375.09 233.305 372.846 230.972Z" fill="black"/>
</g>
<path fill-rule="evenodd" clip-rule="evenodd" d="M123.969 269.833H180.243C182.666 269.833 184.685 271.853 184.685 274.276V307.304C184.685 309.727 182.666 311.747 180.243 311.747H123.969C121.546 311.747 119.527 309.727 119.527 307.304V274.276C119.527 271.808 121.501 269.833 123.969 269.833Z" fill="#3F4249"/>
<path fill-rule="evenodd" clip-rule="evenodd" d="M167.588 281.052C169.114 281.052 170.37 279.212 170.37 276.924C170.37 274.635 169.114 272.795 167.588 272.795C166.062 272.795 164.806 274.635 164.806 276.924C164.806 279.212 166.062 281.052 167.588 281.052Z" fill="#868A91"/>
<path fill-rule="evenodd" clip-rule="evenodd" d="M136.579 281.052C138.105 281.052 139.362 279.212 139.362 276.924C139.362 274.635 138.105 272.795 136.579 272.795C135.054 272.795 133.797 274.635 133.797 276.924C133.797 279.212 135.054 281.052 136.579 281.052Z" fill="#868A91"/>
<path d="M137.836 276.924L135.368 276.879C135.368 275.533 135.906 243.716 152.151 243.716C168.396 243.716 168.845 275.533 168.845 276.879H166.377C166.377 276.789 166.287 268.891 164.357 261.173C161.889 251.21 157.805 246.184 152.151 246.184C146.497 246.184 142.368 251.21 139.9 261.173C137.971 268.981 137.836 276.834 137.836 276.924Z" fill="#868A91"/>
<path d="M150.939 269.833H148.561V311.747H150.939V269.833Z" fill="#868A91"/>
<path d="M155.651 269.833H153.273V311.747H155.651V269.833Z" fill="#868A91"/>
<path d="M123.969 304.163C124.912 300.573 125.405 295.816 125.405 290.79C125.405 285.764 124.912 281.007 123.969 277.417C123.117 274.186 121.95 272.122 120.559 271.404C120.11 271.942 119.751 272.616 119.616 273.334C119.886 273.378 120.828 273.917 121.86 277.956C122.758 281.366 123.251 285.943 123.251 290.79C123.251 295.681 122.758 300.214 121.86 303.624C120.828 307.663 119.886 308.157 119.616 308.246C119.751 308.964 120.11 309.638 120.559 310.176C121.95 309.458 123.117 307.394 123.969 304.163Z" fill="#868A91"/>
<path d="M184.551 308.246C184.281 308.202 183.339 307.663 182.307 303.624C181.409 300.214 180.916 295.636 180.916 290.79C180.916 285.899 181.409 281.366 182.307 277.956C183.339 273.917 184.281 273.423 184.551 273.334C184.416 272.616 184.057 271.942 183.608 271.404C182.217 272.077 181.05 274.141 180.198 277.417C179.255 281.007 178.762 285.764 178.762 290.79C178.762 295.816 179.255 300.573 180.198 304.163C181.05 307.394 182.217 309.458 183.608 310.176C184.057 309.638 184.416 308.964 184.551 308.246Z" fill="#868A91"/>
<path fill-rule="evenodd" clip-rule="evenodd" d="M146.856 283.879H157.356C157.805 283.879 158.164 284.238 158.164 284.687V290.835C158.164 291.284 157.805 291.643 157.356 291.643H146.856C146.407 291.643 146.048 291.284 146.048 290.835V284.687C146.003 284.238 146.407 283.879 146.856 283.879Z" fill="#21252B"/>
<path opacity="0.2" d="M87.1269 392.207L66.619 434.39L66.5293 385.386L87.1269 392.207Z" fill="black"/>
<path d="M86.2297 393.419L7.0702 472.579C5.00595 474.643 1.64033 474.643 -0.42392 472.579L-49.562 423.485C-51.6263 421.421 -51.6263 418.055 -49.562 415.991L29.5975 336.832C31.6617 334.767 35.0273 334.767 37.0916 336.832L86.2297 385.925C88.3388 387.989 88.3388 391.355 86.2297 393.419Z" fill="#21252B"/>
<path d="M37.3159 350.743L21.475 366.584C20.8467 367.212 19.7697 367.212 19.1415 366.584L16.3592 363.802C15.731 363.173 15.731 362.096 16.3592 361.468L32.2001 345.627C32.8284 344.999 33.9054 344.999 34.5336 345.627L37.3159 348.41C37.989 349.038 37.989 350.07 37.3159 350.743Z" fill="#FF7360"/>
<path d="M4.78148 431.249L-9.89264 445.923C-10.2068 446.237 -10.7453 446.237 -11.0594 445.923L-14.1558 442.827C-14.4699 442.513 -14.4699 441.974 -14.1558 441.66L0.518353 426.986C0.832478 426.672 1.37098 426.672 1.68511 426.986L4.78148 430.082C5.14048 430.397 5.14048 430.89 4.78148 431.249Z" fill="white"/>
<path d="M23.0454 412.985L8.37128 427.659C8.05715 427.973 7.51866 427.973 7.20454 427.659L4.10815 424.562C3.79403 424.248 3.79403 423.71 4.10815 423.396L18.7823 408.721C19.0964 408.407 19.6349 408.407 19.949 408.721L23.0454 411.818C23.3595 412.132 23.3595 412.67 23.0454 412.985Z" fill="white"/>
<path d="M41.3098 394.721L26.6357 409.395C26.3216 409.709 25.7831 409.709 25.4689 409.395L22.3726 406.298C22.0584 405.984 22.0584 405.446 22.3726 405.132L37.0467 390.457C37.3608 390.143 37.8993 390.143 38.2134 390.457L41.3098 393.554C41.6239 393.868 41.6239 394.406 41.3098 394.721Z" fill="white"/>
<path d="M59.574 376.456L44.8998 391.13C44.5857 391.445 44.0472 391.445 43.7331 391.13L40.6367 388.034C40.3226 387.72 40.3226 387.181 40.6367 386.867L55.3108 372.193C55.625 371.879 56.1635 371.879 56.4776 372.193L59.574 375.29C59.8881 375.604 59.8881 376.142 59.574 376.456Z" fill="white"/>
<path d="M28.0268 430.262L1.19151 457.097C0.697883 457.59 -0.0649891 457.59 -0.558614 457.097C-1.05224 456.603 -1.05224 455.84 -0.558614 455.347L26.2766 428.511C26.7703 428.018 27.5331 428.018 28.0268 428.511C28.5204 429.005 28.5204 429.813 28.0268 430.262Z" fill="white"/>
<path opacity="0.7" d="M37.3159 350.743L21.475 366.584C20.8467 367.212 19.7697 367.212 19.1415 366.584L16.3592 363.802C15.731 363.173 15.731 362.096 16.3592 361.468L32.2001 345.627C32.8284 344.999 33.9054 344.999 34.5336 345.627L37.3159 348.41C37.989 349.038 37.989 350.07 37.3159 350.743Z" fill="white"/>
<path opacity="0.7" d="M28.0268 430.262L1.19151 457.097C0.697883 457.59 -0.0649891 457.59 -0.558614 457.097C-1.05224 456.603 -1.05224 455.84 -0.558614 455.347L26.2766 428.511C26.7703 428.018 27.5331 428.018 28.0268 428.511C28.5204 429.005 28.5204 429.813 28.0268 430.262Z" fill="white"/>
<path d="M73.3953 396.201C76.0429 393.554 76.0429 389.291 73.3953 386.643C70.7477 383.995 66.4845 383.995 63.8369 386.643C61.1893 389.291 61.1893 393.554 63.8369 396.201C66.4845 398.849 70.7477 398.849 73.3953 396.201Z" fill="#FF7360"/>
<path d="M66.9781 402.619C69.6257 399.971 69.6257 395.708 66.9781 393.061C64.3304 390.413 60.0673 390.413 57.4197 393.061C54.7721 395.708 54.7721 399.971 57.4197 402.619C60.0673 405.267 64.3304 405.267 66.9781 402.619Z" fill="white"/>
</svg>
