<svg width="261" height="189" viewBox="0 0 261 189" fill="none" xmlns="http://www.w3.org/2000/svg">
<path d="M261 139.771C257.078 123.816 220.015 100.516 200.21 114.564C194.131 84.1687 188.444 65.2144 168.582 50.2411C148.72 35.2679 115.579 54.8395 110.257 95.8333C104.934 78.9814 77.8728 56.2695 56.134 75.4205C36.0196 93.1415 34.0026 122.835 36.104 139.743H261V139.771Z" fill="url(#paint0_linear)"/>
<path d="M234.099 111.556C233.728 109.468 233.504 107.358 233.429 105.239C233.286 101.034 233.762 96.0375 236.057 92.3783C238.443 88.5772 241.383 85.6799 244.166 84.0502C246.993 82.3945 249.412 82.1679 251.004 83.1681L251.005 83.1685C252.597 84.1659 253.445 86.4431 253.184 89.7098C252.927 92.9257 251.598 96.8334 249.214 100.635C246.894 104.335 242.908 107.16 239.417 109.077C237.967 109.871 236.475 110.585 234.948 111.217C234.629 111.348 234.344 111.461 234.099 111.556ZM211.08 96.4548L211.08 96.4544C212.83 95.7746 215.164 96.4539 217.628 98.6127C220.055 100.738 222.395 104.136 224.021 108.316C225.604 112.387 225.491 117.269 224.943 121.214C224.715 122.85 224.397 124.473 223.992 126.075C223.917 126.37 223.839 126.665 223.757 126.958C223.436 126.798 223.116 126.634 222.798 126.466C221.243 125.641 219.738 124.727 218.289 123.728C214.832 121.333 211.108 117.97 209.543 113.942C207.918 109.758 207.349 105.671 207.703 102.465C208.063 99.21 209.326 97.1347 211.08 96.4548ZM213.573 153.692L213.574 153.688C213.936 151.985 214.195 150.261 214.349 148.527L214.35 148.524C214.686 144.814 214.541 140.524 213.058 136.907C211.354 132.758 208.95 129.404 206.484 127.325C203.98 125.214 201.634 124.58 199.897 125.294L199.896 125.294C198.16 126.005 196.935 128.106 196.636 131.369C196.341 134.582 196.985 138.659 198.689 142.808L213.573 153.692ZM213.573 153.692C213.443 154.316 213.3 154.937 213.141 155.554L213.573 153.692ZM213.573 153.692L213.141 155.554L213.573 153.692ZM213.141 155.554L212.978 155.476C211.416 154.725 208.502 153.197 205.637 151.018C202.758 148.827 200.018 146.043 198.689 142.808L213.141 155.554ZM225.751 128.017C225.947 127.784 226.183 127.51 226.457 127.202C227.627 125.886 228.872 124.64 230.187 123.469C233.334 120.676 237.485 117.855 241.767 117.29C246.215 116.702 250.319 117.118 253.35 118.221C256.428 119.342 258.147 121.061 258.395 122.923C258.643 124.788 257.43 126.895 254.749 128.778C252.109 130.631 248.253 132.099 243.805 132.687C239.474 133.259 234.756 131.992 231.052 130.528C229.233 129.806 227.462 128.967 225.751 128.017ZM232.603 158.702C228.357 159.722 223.534 158.953 219.699 157.882C218.107 157.436 216.542 156.903 215.009 156.286C214.726 156.173 214.445 156.056 214.166 155.936C214.336 155.684 214.543 155.386 214.783 155.052C215.81 153.621 216.919 152.252 218.105 150.951C220.944 147.845 224.779 144.607 228.977 143.599C233.338 142.551 237.465 142.536 240.594 143.318C243.773 144.112 245.662 145.643 246.101 147.472C246.54 149.3 245.553 151.522 243.083 153.674C240.651 155.792 236.968 157.654 232.603 158.702Z" fill="white" stroke="#E1E4E5" stroke-width="1.86507"/>
<path d="M216.513 150.036C215.801 152.014 215.105 153.998 214.426 155.987L213.978 155.932L213.967 155.927L213.728 155.819C214.551 153.406 215.36 151.11 216.156 148.921L216.156 148.92C225.387 123.421 232.428 112.485 234.42 109.664L234.986 110.117C232.959 113.022 225.753 124.363 216.513 150.036ZM53.5471 100.077C53.7098 99.569 53.9215 98.8813 54.156 98.0467C54.8597 95.5417 55.4171 92.998 55.8253 90.4283C56.7877 84.3025 57.0036 76.8277 54.2563 70.964C51.4331 64.9477 47.6269 60.14 43.7961 57.217C39.9246 54.2627 36.2588 53.3847 33.5382 54.6618L33.5372 54.6623C30.8175 55.9352 29.1473 59.3161 28.9417 64.183C28.7379 68.9991 29.9978 75.0009 32.8164 81.0167C35.5846 86.9248 40.9602 91.8066 45.7269 95.2388C47.7106 96.6642 49.7707 97.9803 51.8979 99.1811C52.5596 99.5546 53.1191 99.8544 53.5471 100.077ZM90.8304 83.9645L90.8299 83.964C88.1848 82.5447 84.4756 83.2235 80.4489 85.9629C76.4646 88.6738 72.403 93.2656 69.2608 99.1172C66.1746 104.864 65.4682 112.089 65.5614 117.961C65.6076 120.883 65.8515 123.439 66.0832 125.263C66.1788 126.017 66.2725 126.645 66.3494 127.121C66.8539 126.949 67.5319 126.709 68.3413 126.399C70.7708 125.469 73.1439 124.399 75.4486 123.193C80.9361 120.31 87.061 116.023 90.124 110.315C93.2666 104.458 94.8505 98.5349 94.9074 93.7169C94.9652 88.8486 93.4797 85.3838 90.8304 83.9645ZM76.3318 167.349L76.3322 167.353C76.4506 168.774 76.5933 169.92 76.7001 170.684C76.9202 170.613 77.1724 170.531 77.455 170.437C79.8791 169.616 84.4304 167.899 89.0292 165.214C93.6452 162.518 98.2128 158.903 100.782 154.328C104.034 148.536 105.727 142.642 105.873 137.824C106.021 132.954 104.601 129.46 101.984 127.994L101.983 127.993C99.3663 126.523 95.6455 127.13 91.568 129.793C87.5338 132.427 83.3859 136.942 80.1342 142.734C77.2783 147.828 76.2958 154.136 76.1215 159.633V159.635C76.0207 162.58 76.149 165.262 76.3318 167.349ZM64.2573 127.927C63.8765 127.332 63.4848 126.743 63.0823 126.163C61.6028 124.022 59.9997 121.969 58.2811 120.015C54.178 115.365 48.5594 110.43 42.2914 108.808C35.8606 107.143 29.732 107.008 25.0372 108.094C20.2929 109.191 17.2757 111.454 16.5203 114.36C15.765 117.27 17.3032 120.715 20.9186 123.978C24.4963 127.206 29.9218 130.063 36.3525 131.728C42.6681 133.363 49.8575 132.338 55.5423 130.859C57.9056 130.241 60.2335 129.495 62.5158 128.625C63.1 128.401 63.6806 128.169 64.2573 127.927ZM48.4872 171.594C54.5971 173.879 61.8518 173.608 67.6582 172.727C70.0725 172.359 72.4649 171.859 74.8248 171.23C75.5587 171.034 76.1681 170.857 76.6297 170.717C76.3126 170.085 75.9841 169.459 75.6445 168.84C74.3958 166.557 73.015 164.348 71.5091 162.226C67.9124 157.175 62.8389 151.681 56.7755 149.414C50.5546 147.088 44.4721 146.315 39.6887 146.905C34.8549 147.503 31.6185 149.44 30.5666 152.256C29.5147 155.072 30.6855 158.657 33.9415 162.278C37.1634 165.862 42.2616 169.268 48.4872 171.594Z" fill="white" stroke="#E1E4E5" stroke-width="1.86507"/>
<path d="M51.5134 99.5117C51.6249 99.6786 61.4202 116.103 71.8007 161.766C72.595 165.263 73.3563 168.766 74.0845 172.277L74.3074 172.23L75.9417 171.887V171.877H75.951L76.0158 171.868C76.22 171.803 76.8332 171.618 77.7522 171.311C76.9407 167.396 76.0864 163.49 75.1896 159.594C64.7904 114.237 55.1713 98.2299 54.7442 97.5151L51.5134 99.5117Z" fill="#E1E4E5"/>
<path d="M58.1654 46.8728C58.1653 47.3225 58.0766 47.7677 57.9043 48.183C57.7321 48.5983 57.4797 48.9756 57.1615 49.2934C56.8434 49.6111 56.4658 49.8631 56.0502 50.0348C55.6347 50.2066 55.1894 50.2947 54.7398 50.2943C52.8472 50.2943 51.322 48.7561 51.322 46.8728C51.3221 46.4232 51.4109 45.978 51.5831 45.5627C51.7554 45.1473 52.0078 44.77 52.3259 44.4523C52.644 44.1345 53.0217 43.8826 53.4372 43.7108C53.8527 43.5391 54.2981 43.4509 54.7477 43.4514C55.1969 43.4511 55.6417 43.5395 56.0568 43.7114C56.4718 43.8833 56.8488 44.1353 57.1663 44.4532C57.4837 44.771 57.7354 45.1483 57.9068 45.5635C58.0783 45.9787 58.1662 46.4236 58.1654 46.8728Z" stroke="#E1E4E5" stroke-width="2.94635" stroke-miterlimit="10"/>
<path d="M167.882 18.4789C166.351 20.6594 163.343 21.186 161.162 19.655C158.982 18.1241 158.455 15.1155 159.986 12.935C161.517 10.7545 164.526 10.228 166.706 11.7589C168.887 13.2898 169.413 16.2985 167.882 18.4789Z" fill="#E1E4E5"/>
<path d="M206.149 35.405L206.367 35.1453V27.2807C206.367 19.1709 212.941 12.5923 221.056 12.5923H227.176C235.286 12.5923 241.865 19.1709 241.865 27.2807C241.865 35.391 235.286 41.9696 227.176 41.9696H200.642L206.149 35.405Z" fill="white" stroke="#E1E4E5" stroke-width="1.86507"/>
<path d="M216.54 27.2542C216.54 27.7433 216.346 28.2123 216 28.5582C215.654 28.9041 215.185 29.0985 214.696 29.0987C214.207 29.0983 213.738 28.9039 213.392 28.5581C213.046 28.2122 212.851 27.7433 212.851 27.2542C212.851 26.7651 213.046 26.2961 213.392 25.9503C213.738 25.6044 214.207 25.41 214.696 25.4096C215.185 25.4099 215.654 25.6043 216 25.9501C216.346 26.296 216.54 26.765 216.54 27.2542ZM225.977 27.2542C225.977 27.7433 225.782 28.2123 225.436 28.5582C225.091 28.9041 224.622 29.0985 224.132 29.0987C223.643 29.0985 223.174 28.9041 222.828 28.5582C222.483 28.2123 222.288 27.7433 222.288 27.2542C222.288 26.765 222.483 26.296 222.828 25.9501C223.174 25.6043 223.643 25.4099 224.132 25.4096C224.622 25.4099 225.091 25.6043 225.436 25.9501C225.782 26.296 225.977 26.765 225.977 27.2542ZM235.414 27.2542C235.414 27.7433 235.219 28.2123 234.873 28.5582C234.527 28.9041 234.058 29.0985 233.569 29.0987C233.08 29.0985 232.611 28.9041 232.265 28.5582C231.919 28.2123 231.725 27.7433 231.725 27.2542C231.725 26.765 231.919 26.296 232.265 25.9501C232.611 25.6043 233.08 25.4099 233.569 25.4096C234.058 25.4099 234.527 25.6043 234.873 25.9501C235.219 26.296 235.414 26.765 235.414 27.2542Z" fill="#E1E4E5" stroke="#E1E4E5" stroke-width="1.86507"/>
<path d="M133.189 181.829H185.526M109.156 170.079H152.949H109.156ZM166.834 170.079H185.526H166.834ZM109.156 181.66H121.763H109.156Z" stroke="#E1E4E5" stroke-width="1.86507" stroke-miterlimit="10" stroke-linecap="round" stroke-linejoin="round"/>
<path d="M20.4477 38.0604C0.110956 43.3325 -4.32092 70.4977 7.36376 83.3089" stroke="#E1E4E5" stroke-width="0.533877" stroke-miterlimit="10" stroke-dasharray="2.22 2.22"/>
<path d="M7.94604 83.9155C8.33133 84.3098 8.73413 84.6867 9.15321 85.0448" stroke="#E1E4E5" stroke-width="0.533877" stroke-miterlimit="10"/>
<path d="M9.26981 80.3695C11.8497 80.4945 13.8453 82.6799 13.7199 85.2597C13.6024 87.8359 11.4095 89.8352 8.83011 89.7098C6.25025 89.5848 4.25463 87.3994 4.37959 84.8196C4.50128 82.2327 6.68995 80.2441 9.26981 80.3695Z" fill="#E1E4E5"/>
<path d="M74.8984 39.5305C76.4278 18.5769 102.353 9.3327 117.057 18.5233" stroke="#E1E4E5" stroke-width="0.533877" stroke-miterlimit="10" stroke-dasharray="2.22 2.22"/>
<path d="M257.021 28.9752C257.329 28.5182 257.658 28.0751 258.006 27.6472" stroke="#E1E4E5" stroke-width="0.533877" stroke-miterlimit="10"/>
<path d="M114.508 20.9269C115.095 23.4424 117.604 25.0123 120.119 24.4253C122.632 23.8462 124.204 21.3302 123.617 18.8147C123.03 16.2996 120.522 14.7292 118.006 15.3163C115.483 15.9014 113.921 18.4118 114.508 20.9269Z" fill="#E1E4E5"/>
<path d="M147.427 6.50149C160.603 -5.52962 181.991 3.90345 185.694 18.1559" stroke="#E1E4E5" stroke-width="0.533877" stroke-miterlimit="10" stroke-dasharray="2.22 2.22"/>
<path d="M182.719 18.1508C181.612 20.0447 182.243 22.4777 184.137 23.5842C186.025 24.6939 188.464 24.0598 189.57 22.1658C190.677 20.2718 190.046 17.8388 188.152 16.7324C187.702 16.4679 187.205 16.2947 186.688 16.2229C186.171 16.151 185.646 16.1819 185.141 16.3137C184.636 16.4454 184.162 16.6755 183.747 16.9908C183.331 17.306 182.982 17.7002 182.719 18.1508Z" fill="#E1E4E5"/>
<path d="M15.7593 148.528C15.8185 148.714 15.764 148.917 15.6204 149.048L10.6947 153.541C10.6328 153.597 10.5577 153.637 10.4763 153.657C10.3948 153.677 10.3097 153.676 10.2288 153.655C10.1478 153.633 10.0736 153.591 10.013 153.533C9.95241 153.475 9.90736 153.403 9.88201 153.323L7.8626 146.97C7.83384 146.879 7.83172 146.781 7.85651 146.689C7.88129 146.597 7.93195 146.514 8.00249 146.449L12.9272 141.959C12.9891 141.902 13.0643 141.863 13.1457 141.843C13.2271 141.823 13.3121 141.824 13.3931 141.846C13.474 141.867 13.5481 141.909 13.6087 141.967C13.6694 142.025 13.7145 142.097 13.7399 142.177L15.7593 148.528V148.528Z" stroke="#E1E4E5" stroke-width="1.6021" stroke-miterlimit="10"/>
<path d="M227.727 66.5703C227.692 66.6593 227.633 66.7365 227.556 66.7927C227.478 66.8489 227.387 66.8818 227.291 66.8874L219.316 67.3625C219.232 67.3676 219.149 67.3515 219.073 67.3157C218.997 67.28 218.931 67.2257 218.882 67.1579C218.833 67.0902 218.801 67.0111 218.79 66.9279C218.78 66.8448 218.79 66.7603 218.821 66.6822L221.726 59.2401C221.797 59.0583 221.967 58.9347 222.162 58.9231L230.136 58.4494C230.219 58.4444 230.303 58.4606 230.378 58.4964C230.454 58.5322 230.52 58.5864 230.569 58.6542C230.618 58.7219 230.65 58.8009 230.661 58.884C230.671 58.9671 230.661 59.0516 230.631 59.1296L227.727 66.5703Z" stroke="#E1E4E5" stroke-width="1.93408" stroke-miterlimit="10"/>
<path d="M91.6509 43.0415C88.6556 41.5844 87.2932 38.0328 88.6006 35.1154C89.9076 32.198 93.4013 31.0206 96.4036 32.4842" fill="#E1E4E5"/>
<path fill-rule="evenodd" clip-rule="evenodd" d="M179.784 134.023C181.547 132.261 183.937 131.271 186.429 131.271C188.921 131.271 191.311 132.261 193.074 134.023L227.328 168.279C229.034 170.052 229.976 172.424 229.952 174.885C229.928 177.346 228.939 179.699 227.199 181.439C225.459 183.179 223.106 184.168 220.645 184.192C218.185 184.216 215.812 183.274 214.039 181.568L179.784 147.314C178.911 146.441 178.219 145.405 177.747 144.265C177.274 143.124 177.031 141.902 177.031 140.668C177.031 139.434 177.274 138.212 177.747 137.071C178.219 135.931 178.911 134.895 179.784 134.023Z" fill="#2C3E50"/>
<path fill-rule="evenodd" clip-rule="evenodd" d="M162.828 117.057C163.71 116.176 164.907 115.68 166.154 115.68C167.401 115.68 168.597 116.176 169.479 117.057L186.583 134.163C187.436 135.05 187.906 136.237 187.894 137.468C187.882 138.699 187.387 139.877 186.517 140.747C185.646 141.618 184.469 142.112 183.238 142.124C182.007 142.137 180.82 141.666 179.932 140.813L162.828 123.708C162.392 123.271 162.045 122.753 161.808 122.182C161.572 121.612 161.45 121 161.45 120.382C161.45 119.765 161.572 119.153 161.808 118.583C162.045 118.012 162.392 117.494 162.828 117.057Z" fill="#BDC2C7"/>
<path d="M226.96 95.4C223.514 95.4 220.72 92.6063 220.72 89.16C220.72 85.7138 223.514 82.92 226.96 82.92C230.406 82.92 233.2 85.7138 233.2 89.16C233.2 92.6063 230.406 95.4 226.96 95.4Z" fill="#D4D7DA"/>
<path d="M134.92 134.4C160.725 134.4 181.72 113.406 181.72 87.6C181.72 61.7945 160.725 40.8 134.92 40.8C109.114 40.8 88.12 61.7945 88.12 87.6C88.12 113.406 109.114 134.4 134.92 134.4Z" fill="#ECF0F1"/>
<path d="M134.92 43.92C110.835 43.92 91.2401 63.5152 91.2401 87.6C91.2401 111.685 110.835 131.28 134.92 131.28C159.005 131.28 178.6 111.685 178.6 87.6C178.6 63.5152 159.005 43.92 134.92 43.92ZM134.92 37.68C162.49 37.68 184.84 60.0301 184.84 87.6C184.84 115.17 162.49 137.52 134.92 137.52C107.35 137.52 85.0001 115.17 85.0001 87.6C85.0001 60.0301 107.35 37.68 134.92 37.68Z" fill="#2C3E50"/>
<path d="M134.92 53.28C115.966 53.28 100.6 68.646 100.6 87.6" stroke="white" stroke-width="6.24" stroke-miterlimit="10" stroke-linecap="round" stroke-linejoin="round"/>
<defs>
<linearGradient id="paint0_linear" x1="153.033" y1="192.776" x2="151.811" y2="-57.6402" gradientUnits="userSpaceOnUse">
<stop stop-color="white"/>
<stop offset="1" stop-color="#EEEEEE"/>
</linearGradient>
</defs>
</svg>
