<svg width="16" height="16" viewBox="0 0 16 16" fill="none" xmlns="http://www.w3.org/2000/svg">
<rect x="1" y="1" width="14.0229" height="14.0229" rx="4.09001" fill="#FFA500" stroke="#FFA500" stroke-width="0.584288"/>
<path d="M15.0228 10.9329L7.71924 7.42718V1.10043L12.1012 1.29214C12.1013 1.29214 12.1013 1.29215 12.1014 1.29215C13.7632 1.73337 14.4877 3.14325 14.7307 3.62931C15.1981 4.56417 15.0228 9.08265 15.0228 10.9329Z" fill="white"/>
<path d="M7.71924 1.10043V7.42717L15.0228 10.9329C15.0228 9.08265 15.1981 4.56417 14.7307 3.62931C14.4877 3.14325 13.7632 1.73337 12.1014 1.29215M7.71924 1.10043C8.09324 1.24068 10.5325 1.22351 12.1014 1.29215M7.71924 1.10043L12.1014 1.29215" stroke="#FFA500" stroke-width="0.584288"/>
</svg>
