<svg width="280" height="240" viewBox="0 0 280 240" fill="none" xmlns="http://www.w3.org/2000/svg">
<rect y="26" width="280" height="181" rx="4" fill="white"/>
<rect y="26" width="280" height="181" rx="4" fill="#F5F8FA"/>
<g filter="url(#filter0_d)">
<path d="M238.1 221.7H41.5C37.3 221.7 34 218.3 34 214.2V17.5C34 13.3 37.4 10 41.5 10H238.2C242.4 10 245.7 13.4 245.7 17.5V214.2C245.7 218.4 242.3 221.7 238.1 221.7Z" fill="white"/>
</g>
<path d="M186.1 154.8H93.4996C90.1996 154.8 87.5996 152.1 87.5996 148.9C87.5996 145.6 90.2996 143 93.4996 143H186.1C189.4 143 192 145.7 192 148.9C192.1 152.2 189.4 154.8 186.1 154.8Z" fill="#61656D"/>
<path d="M210.2 177.9H69.3998C67.6998 177.9 66.2998 176.5 66.2998 174.8C66.2998 173.1 67.6998 171.7 69.3998 171.7H210.2C211.9 171.7 213.3 173.1 213.3 174.8C213.4 176.5 212 177.9 210.2 177.9Z" fill="#B2B6BB"/>
<path d="M181.8 197.1H97.8998C96.1998 197.1 94.7998 195.7 94.7998 194C94.7998 192.3 96.1998 190.9 97.8998 190.9H181.8C183.5 190.9 184.9 192.3 184.9 194C184.9 195.7 183.5 197.1 181.8 197.1Z" fill="#B2B6BB"/>
<path d="M147.8 34.6H139.8V35.4C121.2 39.1 107.1 55.6 107.1 75.3C107.1 95 121.1 111.5 139.8 115.2V116H147.8C170.3 116 188.5 97.8 188.5 75.3C188.5 52.8 170.3 34.6 147.8 34.6Z" fill="#FF7360"/>
<path opacity="0.2" d="M147.8 34.6H139.8V35.4C121.2 39.1 107.1 55.6 107.1 75.3C107.1 95 121.1 111.5 139.8 115.2V116H147.8C170.3 116 188.5 97.8 188.5 75.3C188.5 52.8 170.3 34.6 147.8 34.6Z" fill="black"/>
<path d="M139.8 115.9C162.278 115.9 180.5 97.678 180.5 75.2C180.5 52.722 162.278 34.5 139.8 34.5C117.322 34.5 99.0996 52.722 99.0996 75.2C99.0996 97.678 117.322 115.9 139.8 115.9Z" fill="#FF7360"/>
<path d="M132.299 92.1999L118.599 78.4999C117.899 77.7999 117.899 76.6 118.599 75.8L122.199 72.1999C122.899 71.4999 124.099 71.4999 124.899 72.1999L133.699 80.9999L154.899 59.6999C155.599 58.9999 156.799 58.9999 157.599 59.6999L161.199 63.3C161.899 64 161.899 65.1999 161.199 65.9999L134.999 92.1999C134.199 92.9999 132.999 92.9999 132.299 92.1999Z" fill="white"/>
<defs>
<filter id="filter0_d" x="20" y="0" width="239.7" height="239.7" filterUnits="userSpaceOnUse" color-interpolation-filters="sRGB">
<feFlood flood-opacity="0" result="BackgroundImageFix"/>
<feColorMatrix in="SourceAlpha" type="matrix" values="0 0 0 0 0 0 0 0 0 0 0 0 0 0 0 0 0 0 127 0" result="hardAlpha"/>
<feOffset dy="4"/>
<feGaussianBlur stdDeviation="7"/>
<feColorMatrix type="matrix" values="0 0 0 0 0.304757 0 0 0 0 0.417458 0 0 0 0 0.558333 0 0 0 0.2 0"/>
<feBlend mode="normal" in2="BackgroundImageFix" result="effect1_dropShadow"/>
<feBlend mode="normal" in="SourceGraphic" in2="effect1_dropShadow" result="shape"/>
</filter>
</defs>
</svg>
