<svg width="375" height="812" viewBox="0 0 375 812" fill="none" xmlns="http://www.w3.org/2000/svg">
    <defs>
        <linearGradient id="paint0_linear" x1="187.5" y1="0" x2="187.5" y2="812" gradientUnits="userSpaceOnUse">
            <stop stop-color="#FD6753"/>
            <stop offset="1" stop-color="#FF9384"/>
        </linearGradient>
        <linearGradient id="paint1_linear" x1="47.5" y1="242.592" x2="47.5" y2="345.182" gradientUnits="userSpaceOnUse">
            <stop stop-color="#FF4229"/>
            <stop offset="1" stop-color="#FF9A8D" stop-opacity="0.24"/>
        </linearGradient>
        <linearGradient id="paint2_linear" x1="637.493" y1="574.495" x2="637.493" y2="677.085" gradientUnits="userSpaceOnUse">
            <stop stop-color="#FF4229"/>
            <stop offset="1" stop-color="#FF9A8D" stop-opacity="0.24"/>
        </linearGradient>
        <linearGradient id="paint3_linear" x1="315" y1="222" x2="307" y2="284" gradientUnits="userSpaceOnUse">
            <stop stop-color="#FF8474"/>
            <stop offset="1" stop-color="#FF6A55" stop-opacity="0.34"/>
        </linearGradient>
        <linearGradient id="paint4_linear" x1="102.058" y1="583.27" x2="74.3896" y2="527.212" gradientUnits="userSpaceOnUse">
            <stop stop-color="#FF8474"/>
            <stop offset="1" stop-color="#FF6A55" stop-opacity="0.34"/>
        </linearGradient>
        <clipPath id="clip0">
            <rect width="375" height="812" fill="white"/>
        </clipPath>
    </defs>
<g clip-path="url(#clip0)">
<rect width="375" height="812" fill="white"/>
<rect width="375" height="812" fill="url(#paint0_linear)"/>
<path d="M154.292 397.72C154.335 397.592 154.356 397.421 154.356 397.208C154.356 396.867 154.26 396.589 154.068 396.376C153.897 396.163 153.62 395.928 153.236 395.672C152.916 395.437 152.681 395.235 152.532 395.064C152.404 394.893 152.372 394.691 152.436 394.456C152.5 394.157 152.66 393.955 152.916 393.848C153.172 393.741 153.577 393.688 154.132 393.688H163.22C163.668 393.688 164.009 393.763 164.244 393.912C164.5 394.061 164.628 394.253 164.628 394.488C164.628 394.595 164.596 394.733 164.532 394.904C164.468 395.053 164.372 395.192 164.244 395.32C164.137 395.427 164.031 395.512 163.924 395.576C163.839 395.619 163.775 395.661 163.732 395.704C163.391 395.896 163.113 396.109 162.9 396.344C162.687 396.579 162.505 396.941 162.356 397.432L159.22 408.504C158.58 410.765 157.492 412.451 155.956 413.56C154.42 414.648 152.425 415.192 149.972 415.192C148.329 415.192 146.932 414.957 145.78 414.488C144.649 413.997 143.796 413.347 143.22 412.536C142.644 411.725 142.356 410.84 142.356 409.88C142.356 409.411 142.42 408.952 142.548 408.504C142.825 407.544 143.295 406.819 143.956 406.328C144.639 405.837 145.396 405.592 146.228 405.592C147.188 405.592 147.924 405.88 148.436 406.456C148.948 407.032 149.204 407.768 149.204 408.664C149.204 409.112 149.14 409.56 149.012 410.008C148.756 410.904 148.276 411.565 147.572 411.992C147.913 412.205 148.308 412.312 148.756 412.312C149.204 412.312 149.599 412.088 149.94 411.64C150.281 411.192 150.569 410.563 150.804 409.752L154.292 397.72ZM180.853 411.224C180.768 411.501 180.725 411.779 180.725 412.056C180.725 412.291 180.757 412.493 180.821 412.664C180.885 412.813 180.949 412.941 181.013 413.048C181.099 413.133 181.152 413.197 181.173 413.24C181.387 413.453 181.493 413.667 181.493 413.88C181.493 413.923 181.472 414.029 181.429 414.2C181.344 414.499 181.152 414.712 180.853 414.84C180.576 414.947 180.139 415 179.541 415H171.957C171.509 415 171.157 414.925 170.901 414.776C170.667 414.627 170.549 414.424 170.549 414.168C170.549 414.04 170.581 413.901 170.645 413.752C170.709 413.581 170.795 413.453 170.901 413.368C171.029 413.261 171.2 413.144 171.413 413.016C171.755 412.824 172.032 412.611 172.245 412.376C172.459 412.141 172.64 411.757 172.789 411.224L173.621 408.472H168.629L167.765 410.296C167.403 411.085 167.221 411.704 167.221 412.152C167.221 412.408 167.264 412.621 167.349 412.792C167.435 412.941 167.563 413.101 167.733 413.272C167.883 413.443 167.979 413.592 168.021 413.72C168.085 413.827 168.096 413.976 168.053 414.168C167.968 414.488 167.787 414.712 167.509 414.84C167.253 414.947 166.837 415 166.261 415H161.493C161.003 415 160.629 414.915 160.373 414.744C160.117 414.552 159.989 414.307 159.989 414.008C159.989 413.667 160.117 413.4 160.373 413.208C160.608 412.995 160.971 412.771 161.461 412.536C162.101 412.216 162.613 411.907 162.997 411.608C163.381 411.288 163.712 410.851 163.989 410.296L169.685 398.488C170.56 396.653 171.584 395.331 172.757 394.52C173.952 393.688 175.52 393.272 177.461 393.272C179.637 393.272 181.323 393.72 182.517 394.616C183.712 395.491 184.309 396.717 184.309 398.296C184.309 398.957 184.203 399.64 183.989 400.344L180.853 411.224ZM174.581 405.272L176.277 399.64C176.363 399.384 176.405 399.117 176.405 398.84C176.405 398.435 176.288 398.136 176.053 397.944C175.84 397.731 175.531 397.624 175.125 397.624C174.613 397.624 174.176 397.773 173.813 398.072C173.451 398.371 173.088 398.904 172.725 399.672L170.101 405.272H174.581ZM209.221 393.688C210.095 393.688 210.533 393.965 210.533 394.52C210.533 394.669 210.522 394.776 210.501 394.84C210.437 395.053 210.341 395.224 210.213 395.352C210.085 395.459 209.903 395.587 209.669 395.736C209.349 395.928 209.082 396.141 208.868 396.376C208.655 396.611 208.474 396.973 208.325 397.464L204.357 411.672C203.994 412.952 203.535 413.848 202.981 414.36C202.447 414.872 201.7 415.128 200.74 415.128C199.887 415.128 199.173 414.883 198.597 414.392C198.042 413.88 197.519 413.101 197.029 412.056L192.196 401.88L189.508 411.224C189.444 411.501 189.412 411.747 189.412 411.96C189.412 412.237 189.455 412.472 189.54 412.664C189.647 412.835 189.786 413.016 189.956 413.208C190.191 413.485 190.308 413.72 190.308 413.912C190.308 414.04 190.298 414.136 190.276 414.2C190.191 414.499 189.999 414.712 189.701 414.84C189.402 414.947 188.954 415 188.356 415H184.868C183.994 415 183.556 414.723 183.556 414.168C183.556 414.019 183.567 413.912 183.588 413.848C183.652 413.635 183.748 413.475 183.876 413.368C184.004 413.24 184.186 413.101 184.42 412.952C184.74 412.76 185.007 412.547 185.22 412.312C185.434 412.077 185.615 411.715 185.764 411.224L189.828 396.856L189.316 395.8C189.103 395.373 188.996 395 188.996 394.68C188.996 394.019 189.423 393.688 190.276 393.688H195.012C195.695 393.688 196.207 393.848 196.549 394.168C196.911 394.467 197.295 395.011 197.701 395.8L202.372 405.176L204.58 397.464C204.645 397.165 204.677 396.92 204.677 396.728C204.677 396.451 204.623 396.227 204.517 396.056C204.431 395.864 204.303 395.672 204.132 395.48C203.898 395.203 203.781 394.968 203.781 394.776C203.781 394.648 203.791 394.552 203.812 394.488C203.898 394.189 204.09 393.987 204.389 393.88C204.687 393.752 205.135 393.688 205.733 393.688H209.221ZM230.367 393.688C231.157 393.688 231.765 393.859 232.191 394.2C232.639 394.541 232.863 395.011 232.863 395.608C232.863 395.907 232.821 396.195 232.735 396.472L231.903 399.448C231.754 400.024 231.53 400.429 231.231 400.664C230.954 400.877 230.549 400.984 230.015 400.984C229.503 400.984 229.098 400.877 228.799 400.664C228.522 400.429 228.309 400.056 228.159 399.544L227.647 397.72C227.541 397.336 227.413 397.08 227.263 396.952C227.114 396.824 226.826 396.76 226.399 396.76H223.039L221.439 402.456H222.847C222.997 402.456 223.199 402.349 223.455 402.136L224.543 401.176C224.863 400.899 225.141 400.696 225.375 400.568C225.61 400.44 225.898 400.376 226.239 400.376C226.623 400.376 226.933 400.483 227.167 400.696C227.423 400.888 227.551 401.144 227.551 401.464C227.551 401.549 227.53 401.677 227.487 401.848L226.175 406.296C226.047 406.765 225.823 407.117 225.503 407.352C225.205 407.565 224.874 407.672 224.511 407.672C223.914 407.672 223.466 407.363 223.167 406.744L222.623 405.624C222.474 405.304 222.239 405.144 221.919 405.144H220.671L218.783 411.928H221.599C222.005 411.928 222.357 411.853 222.655 411.704C222.975 411.533 223.317 411.245 223.679 410.84L225.599 408.728C225.941 408.365 226.261 408.109 226.559 407.96C226.879 407.789 227.263 407.704 227.711 407.704C228.181 407.704 228.565 407.811 228.863 408.024C229.162 408.237 229.311 408.557 229.311 408.984C229.311 409.155 229.279 409.357 229.215 409.592L228.287 412.824C228.053 413.635 227.711 414.2 227.263 414.52C226.815 414.84 226.165 415 225.311 415H210.047C209.599 415 209.258 414.925 209.023 414.776C208.767 414.627 208.639 414.424 208.639 414.168C208.639 414.04 208.671 413.901 208.735 413.752C208.821 413.517 208.959 413.336 209.151 413.208C209.343 413.08 209.461 413.005 209.503 412.984C209.845 412.771 210.122 412.557 210.335 412.344C210.549 412.109 210.73 411.736 210.879 411.224L214.815 397.432C214.901 397.155 214.943 396.899 214.943 396.664C214.943 396.408 214.901 396.195 214.815 396.024C214.751 395.853 214.645 395.672 214.495 395.48C214.303 395.203 214.207 394.979 214.207 394.808C214.207 394.744 214.229 394.627 214.271 394.456C214.357 394.179 214.549 393.987 214.847 393.88C215.146 393.752 215.583 393.688 216.159 393.688H230.367Z" fill="white"/>
<path d="M215.286 427H224.214C224.688 427 225.142 427.105 225.477 427.293C225.812 427.48 226 427.735 226 428C226 428.265 225.812 428.52 225.477 428.707C225.142 428.895 224.688 429 224.214 429H215.286C214.812 429 214.358 428.895 214.023 428.707C213.688 428.52 213.5 428.265 213.5 428C213.5 427.735 213.688 427.48 214.023 427.293C214.358 427.105 214.812 427 215.286 427ZM202.786 423H224.214C224.688 423 225.142 423.105 225.477 423.293C225.812 423.48 226 423.735 226 424C226 424.265 225.812 424.52 225.477 424.707C225.142 424.895 224.688 425 224.214 425H202.786C202.312 425 201.858 424.895 201.523 424.707C201.188 424.52 201 424.265 201 424C201 423.735 201.188 423.48 201.523 423.293C201.858 423.105 202.312 423 202.786 423Z" fill="white"/>
<rect x="-96" y="242.592" width="287" height="102.59" rx="51.2949" transform="rotate(-41.0803 -96 242.592)" fill="url(#paint1_linear)"/>
<rect x="493.993" y="574.495" width="287" height="102.59" rx="51.2949" transform="rotate(131.887 493.993 574.495)" fill="url(#paint2_linear)"/>
<path d="M467 283.5C467 336.795 423.795 380 370.5 380C317.205 380 274 336.795 274 283.5C274 230.205 317.205 187 370.5 187C423.795 187 467 230.205 467 283.5ZM312.6 283.5C312.6 315.477 338.523 341.4 370.5 341.4C402.477 341.4 428.4 315.477 428.4 283.5C428.4 251.523 402.477 225.6 370.5 225.6C338.523 225.6 312.6 251.523 312.6 283.5Z" fill="url(#paint3_linear)"/>
<path d="M-58.5664 616.223C-88.077 571.844 -76.0233 511.944 -31.6439 482.434C12.7356 452.923 72.6353 464.977 102.146 509.356C131.656 553.736 119.603 613.635 75.2232 643.146C30.8438 672.656 -29.0559 660.603 -58.5664 616.223ZM70.0033 530.73C52.297 504.102 16.3572 496.87 -10.2705 514.576C-36.8981 532.282 -44.1303 568.222 -26.424 594.85C-8.71767 621.477 27.2221 628.71 53.8498 611.003C80.4775 593.297 87.7097 557.357 70.0033 530.73Z" fill="url(#paint4_linear)"/>
</g>
</svg>
