<svg width="29" height="29" viewBox="0 0 29 29" fill="none" xmlns="http://www.w3.org/2000/svg">
<g clip-path="url(#clip0)">
<rect x="0.00976562" y="0.448303" width="28.425" height="28.425" rx="14.2125" fill="#DF6859"/>
<rect x="1.45654" y="2.85187" width="26.0214" height="26.0214" rx="13.0107" fill="#F57969"/>
<path d="M15.3459 15.0005L18.7095 11.6359C18.8004 11.5482 18.8729 11.4432 18.9227 11.3271C18.9726 11.211 18.9989 11.0861 19 10.9598C19.0011 10.8334 18.977 10.7081 18.9291 10.5912C18.8813 10.4743 18.8106 10.368 18.7213 10.2787C18.632 10.1894 18.5257 10.1187 18.4088 10.0709C18.2919 10.023 18.1666 9.99894 18.0402 10C17.9139 10.0011 17.789 10.0274 17.6729 10.0773C17.5568 10.1271 17.4518 10.1996 17.3641 10.2905L13.9995 13.6541L10.6359 10.2905C10.5482 10.1996 10.4432 10.1271 10.3271 10.0773C10.211 10.0274 10.0861 10.0011 9.95978 10C9.83344 9.99894 9.70815 10.023 9.59121 10.0709C9.47427 10.1187 9.36803 10.1894 9.27869 10.2787C9.18935 10.368 9.1187 10.4743 9.07086 10.5912C9.02301 10.7081 8.99894 10.8334 9.00004 10.9598C9.00113 11.0861 9.02738 11.211 9.07725 11.3271C9.12712 11.4432 9.19961 11.5482 9.29049 11.6359L12.6541 14.9995L9.29049 18.3641C9.19961 18.4518 9.12712 18.5568 9.07725 18.6729C9.02738 18.789 9.00113 18.9139 9.00004 19.0402C8.99894 19.1666 9.02301 19.2919 9.07086 19.4088C9.1187 19.5257 9.18935 19.632 9.27869 19.7213C9.36803 19.8106 9.47427 19.8813 9.59121 19.9291C9.70815 19.977 9.83344 20.0011 9.95978 20C10.0861 19.9989 10.211 19.9726 10.3271 19.9227C10.4432 19.8729 10.5482 19.8004 10.6359 19.7095L13.9995 16.3459L17.3641 19.7095C17.4518 19.8004 17.5568 19.8729 17.6729 19.9227C17.789 19.9726 17.9139 19.9989 18.0402 20C18.1666 20.0011 18.2919 19.977 18.4088 19.9291C18.5257 19.8813 18.632 19.8106 18.7213 19.7213C18.8106 19.632 18.8813 19.5257 18.9291 19.4088C18.977 19.2919 19.0011 19.1666 19 19.0402C18.9989 18.9139 18.9726 18.789 18.9227 18.6729C18.8729 18.5568 18.8004 18.4518 18.7095 18.3641L15.3459 14.9995V15.0005Z" fill="white"/>
</g>
<defs>
<clipPath id="clip0">
<rect width="28.425" height="28.425" fill="white" transform="translate(0.00976562 0.448303)"/>
</clipPath>
</defs>
</svg>
