<svg width="29" height="29" viewBox="0 0 29 29" fill="none" xmlns="http://www.w3.org/2000/svg">
<g clip-path="url(#clip0)">
<rect x="0.00976562" y="0.448303" width="28.425" height="28.425" rx="14.2125" fill="#5087C9"/>
<rect x="1.45654" y="2.85187" width="26.0214" height="26.0214" rx="13.0107" fill="#63A0EA"/>
<path d="M14.1 12.3C14.3917 12.3 14.6715 12.4159 14.8778 12.6222C15.0841 12.8285 15.2 13.1083 15.2 13.4V18.9C15.2 19.1917 15.0841 19.4715 14.8778 19.6778C14.6715 19.8841 14.3917 20 14.1 20C13.8083 20 13.5285 19.8841 13.3222 19.6778C13.1159 19.4715 13 19.1917 13 18.9V13.4C13 13.1083 13.1159 12.8285 13.3222 12.6222C13.5285 12.4159 13.8083 12.3 14.1 12.3ZM14.1 11.2C13.8083 11.2 13.5285 11.0841 13.3222 10.8778C13.1159 10.6715 13 10.3917 13 10.1C13 9.80826 13.1159 9.52847 13.3222 9.32218C13.5285 9.11589 13.8083 9 14.1 9C14.3917 9 14.6715 9.11589 14.8778 9.32218C15.0841 9.52847 15.2 9.80826 15.2 10.1C15.2 10.3917 15.0841 10.6715 14.8778 10.8778C14.6715 11.0841 14.3917 11.2 14.1 11.2Z" fill="white"/>
</g>
<defs>
<clipPath id="clip0">
<rect width="28.425" height="28.425" fill="white" transform="translate(0.00976562 0.448303)"/>
</clipPath>
</defs>
</svg>
