<svg width="29" height="29" viewBox="0 0 29 29" fill="none" xmlns="http://www.w3.org/2000/svg">
<g clip-path="url(#clip0)">
<rect x="0.00976562" y="0.448303" width="28.425" height="28.425" rx="14.2125" fill="#47B88C"/>
<rect x="1.45654" y="2.85187" width="26.0214" height="26.0214" rx="13.0107" fill="#5CD6A7"/>
<path d="M13.0365 18.6944C12.9107 18.6946 12.786 18.67 12.6698 18.622C12.5535 18.574 12.4478 18.5035 12.3589 18.4145L8.29308 14.3478C8.20148 14.2594 8.12839 14.1537 8.07808 14.0368C8.02776 13.9199 8.00124 13.7941 8.00004 13.6669C7.99885 13.5396 8.02301 13.4134 8.07112 13.2956C8.11923 13.1778 8.19032 13.0707 8.28025 12.9806C8.37017 12.8906 8.47714 12.8193 8.59489 12.7711C8.71265 12.7228 8.83884 12.6984 8.9661 12.6995C9.09336 12.7005 9.21915 12.7268 9.33612 12.777C9.45309 12.8271 9.5589 12.9001 9.64738 12.9915L13.0355 16.3797L19.1361 10.281C19.3158 10.1012 19.5596 10.0001 19.8139 10C20.0681 9.99991 20.312 10.1008 20.4918 10.2805C20.6717 10.4603 20.7728 10.7041 20.7729 10.9583C20.773 11.2126 20.672 11.4564 20.4923 11.6363L13.7141 18.4145C13.6252 18.5035 13.5195 18.574 13.4032 18.622C13.2869 18.67 13.1623 18.6946 13.0365 18.6944Z" fill="white"/>
</g>
<defs>
<clipPath id="clip0">
<rect width="28.425" height="28.425" fill="white" transform="translate(0.00976562 0.448303)"/>
</clipPath>
</defs>
</svg>
