<svg width="29" height="29" viewBox="0 0 29 29" fill="none" xmlns="http://www.w3.org/2000/svg">
<g clip-path="url(#clip0)">
<rect x="0.00976562" y="0.448303" width="28.425" height="28.425" rx="14.2125" fill="#DB9E57"/>
<rect x="1.45654" y="2.85187" width="26.0214" height="26.0214" rx="13.0107" fill="#FCBA6E"/>
<path d="M14.0995 16.7C14.3912 16.7 14.671 16.5841 14.8773 16.3778C15.0836 16.1715 15.1995 15.8917 15.1995 15.6V10.1C15.1995 9.80826 15.0836 9.52847 14.8773 9.32218C14.671 9.11589 14.3912 9 14.0995 9C13.8078 9 13.528 9.11589 13.3217 9.32218C13.1154 9.52847 12.9995 9.80826 12.9995 10.1V15.6C12.9995 15.8917 13.1154 16.1715 13.3217 16.3778C13.528 16.5841 13.8078 16.7 14.0995 16.7ZM14.0995 17.8C13.8078 17.8 13.528 17.9159 13.3217 18.1222C13.1154 18.3285 12.9995 18.6083 12.9995 18.9C12.9995 19.1917 13.1154 19.4715 13.3217 19.6778C13.528 19.8841 13.8078 20 14.0995 20C14.3912 20 14.671 19.8841 14.8773 19.6778C15.0836 19.4715 15.1995 19.1917 15.1995 18.9C15.1995 18.6083 15.0836 18.3285 14.8773 18.1222C14.671 17.9159 14.3912 17.8 14.0995 17.8Z" fill="white"/>
</g>
<defs>
<clipPath id="clip0">
<rect width="28.425" height="28.425" fill="white" transform="translate(0.00976562 0.448303)"/>
</clipPath>
</defs>
</svg>
